<?xml version="1.0" encoding="utf-8"?>
<svg xmlns="http://www.w3.org/2000/svg" xmlns:xlink="http://www.w3.org/1999/xlink" style="margin: auto; background: rgb(241, 242, 243); display: block; z-index: 1; position: relative; shape-rendering: auto;" width="1536" height="959" preserveAspectRatio="xMidYMid" viewBox="0 0 1536 959">
<g transform="translate(768,479.5) scale(1,1) translate(-768,-479.5)"><linearGradient id="lg-0.4051248047106344" x1="0" x2="1" y1="0" y2="0">
  <stop stop-color="#e6431d" offset="0"></stop>
  <stop stop-color="#e6431d" offset="1"></stop>
</linearGradient><path d="M 1428 480 C 1428 648 1072 875 913 927 C 754 979 421 938 323 803 C 225 668 183 261 282 126 C 381 -9 744 12 903 64 C 1062 116 1428 312 1428 480" fill="url(#lg-0.4051248047106344)" opacity="0.4">
  <animate attributeName="d" dur="10s" repeatCount="indefinite" keyTimes="0;0.3333333333333333;0.6666666666666666;1" calcmod="spline" keySplines="0.3 0.1 0.7 0.9;0.3 0.1 0.7 0.9;0.3 0.1 0.7 0.9" begin="-4s" values="M 1428 480 C 1428 648 1072 875 913 927 C 754 979 421 938 323 803 C 225 668 183 261 282 126 C 381 -9 744 12 903 64 C 1062 116 1428 312 1428 480;M 1347 480 C 1347 647 1066 855 907 907 C 748 959 382 966 284 831 C 186 696 206 277 304 142 C 402 7 726 68 885 120 C 1044 172 1347 313 1347 480;M 1213 480 C 1213 615 1020 819 892 861 C 764 903 534 816 455 707 C 376 598 338 334 417 225 C 496 116 737 140 865 182 C 993 224 1213 345 1213 480;M 1428 480 C 1428 648 1072 875 913 927 C 754 979 421 938 323 803 C 225 668 183 261 282 126 C 381 -9 744 12 903 64 C 1062 116 1428 312 1428 480"></animate>
</path><path d="M 1294 480 C 1294 622 1012 771 877 815 C 742 859 438 894 355 779 C 272 664 258 285 341 170 C 424 55 752 69 887 113 C 1022 157 1294 338 1294 480" fill="url(#lg-0.4051248047106344)" opacity="0.4">
  <animate attributeName="d" dur="10s" repeatCount="indefinite" keyTimes="0;0.3333333333333333;0.6666666666666666;1" calcmod="spline" keySplines="0.3 0.1 0.7 0.9;0.3 0.1 0.7 0.9;0.3 0.1 0.7 0.9" begin="-4s" values="M 1294 480 C 1294 622 1012 771 877 815 C 742 859 438 894 355 779 C 272 664 258 285 341 170 C 424 55 752 69 887 113 C 1022 157 1294 338 1294 480;M 1244 480 C 1244 615 1014 800 886 842 C 758 884 481 854 402 745 C 323 636 291 299 370 190 C 449 81 761 66 889 108 C 1017 150 1244 345 1244 480;M 1164 480 C 1164 591 964 723 858 757 C 752 791 504 808 439 718 C 374 628 412 358 477 268 C 542 178 752 168 858 202 C 964 236 1164 369 1164 480;M 1294 480 C 1294 622 1012 771 877 815 C 742 859 438 894 355 779 C 272 664 258 285 341 170 C 424 55 752 69 887 113 C 1022 157 1294 338 1294 480"></animate>
</path><path d="M 1137 480 C 1137 585 965 745 865 778 C 765 811 517 792 455 707 C 393 622 444 374 506 289 C 568 204 757 173 857 206 C 957 239 1137 375 1137 480" fill="url(#lg-0.4051248047106344)" opacity="0.4">
  <animate attributeName="d" dur="10s" repeatCount="indefinite" keyTimes="0;0.3333333333333333;0.6666666666666666;1" calcmod="spline" keySplines="0.3 0.1 0.7 0.9;0.3 0.1 0.7 0.9;0.3 0.1 0.7 0.9" begin="-4s" values="M 1137 480 C 1137 585 965 745 865 778 C 765 811 517 792 455 707 C 393 622 444 374 506 289 C 568 204 757 173 857 206 C 957 239 1137 375 1137 480;M 1242 480 C 1242 602 991 772 875 810 C 759 848 488 834 416 735 C 344 636 330 313 402 214 C 474 115 767 89 883 127 C 999 165 1242 358 1242 480;M 1405 480 C 1405 668 1120 954 941 1012 C 762 1070 375 997 265 845 C 155 693 200 299 311 147 C 422 -5 729 -9 908 49 C 1087 107 1405 292 1405 480;M 1137 480 C 1137 585 965 745 865 778 C 765 811 517 792 455 707 C 393 622 444 374 506 289 C 568 204 757 173 857 206 C 957 239 1137 375 1137 480"></animate>
</path><path d="M 1103 480 C 1103 570 919 654 834 682 C 749 710 571 734 518 661 C 465 588 447 358 500 285 C 553 212 751 241 836 269 C 921 297 1103 390 1103 480" fill="url(#lg-0.4051248047106344)" opacity="0.4">
  <animate attributeName="d" dur="10s" repeatCount="indefinite" keyTimes="0;0.3333333333333333;0.6666666666666666;1" calcmod="spline" keySplines="0.3 0.1 0.7 0.9;0.3 0.1 0.7 0.9;0.3 0.1 0.7 0.9" begin="-4s" values="M 1103 480 C 1103 570 919 654 834 682 C 749 710 571 734 518 661 C 465 588 447 358 500 285 C 553 212 751 241 836 269 C 921 297 1103 390 1103 480;M 1033 480 C 1033 565 908 636 827 662 C 746 688 578 723 528 654 C 478 585 473 370 523 301 C 573 232 754 248 835 274 C 916 300 1033 395 1033 480;M 1387 480 C 1387 663 1106 926 932 983 C 758 1040 406 968 299 820 C 192 672 132 243 239 95 C 346 -53 747 -49 921 7 C 1095 63 1387 297 1387 480;M 1103 480 C 1103 570 919 654 834 682 C 749 710 571 734 518 661 C 465 588 447 358 500 285 C 553 212 751 241 836 269 C 921 297 1103 390 1103 480"></animate>
</path><path d="M 1261 480 C 1261 606 1007 807 887 846 C 767 885 469 853 395 751 C 321 649 370 346 444 244 C 518 142 762 90 882 129 C 1002 168 1261 354 1261 480" fill="url(#lg-0.4051248047106344)" opacity="0.4">
  <animate attributeName="d" dur="10s" repeatCount="indefinite" keyTimes="0;0.3333333333333333;0.6666666666666666;1" calcmod="spline" keySplines="0.3 0.1 0.7 0.9;0.3 0.1 0.7 0.9;0.3 0.1 0.7 0.9" begin="-4s" values="M 1261 480 C 1261 606 1007 807 887 846 C 767 885 469 853 395 751 C 321 649 370 346 444 244 C 518 142 762 90 882 129 C 1002 168 1261 354 1261 480;M 1367 480 C 1367 651 1058 816 895 869 C 732 922 418 945 317 807 C 216 669 217 292 318 153 C 419 14 732 35 895 88 C 1058 141 1367 309 1367 480;M 1209 480 C 1209 618 1029 838 898 881 C 767 924 522 829 441 717 C 360 605 284 298 365 186 C 446 74 744 108 875 151 C 1006 194 1209 342 1209 480;M 1261 480 C 1261 606 1007 807 887 846 C 767 885 469 853 395 751 C 321 649 370 346 444 244 C 518 142 762 90 882 129 C 1002 168 1261 354 1261 480"></animate>
</path></g>
</svg>