<?xml version="1.0" encoding="utf-8"?>
<svg xmlns="http://www.w3.org/2000/svg" xmlns:xlink="http://www.w3.org/1999/xlink" style="margin: auto; background: rgb(241, 242, 243); display: block; z-index: 1; position: relative; shape-rendering: auto;" width="1536" height="826" preserveAspectRatio="xMidYMid" viewBox="0 0 1536 826">
<g transform="translate(768,413) scale(1,1) translate(-768,-413)"><linearGradient id="lg-0.8266873056142017" x1="0" x2="1" y1="0" y2="0">
  <stop stop-color="#0051a2" offset="0"></stop>
  <stop stop-color="#1b75be" offset="1"></stop>
</linearGradient><path d="M 894 413 C 894 445 823 478 792 488 C 761 498 705 499 686 473 C 667 447 662 376 681 350 C 700 324 760 331 791 341 C 822 351 894 381 894 413" fill="url(#lg-0.8266873056142017)" opacity="0.69">
  <animate attributeName="d" dur="20s" repeatCount="indefinite" keyTimes="0;0.3333333333333333;0.6666666666666666;1" calcmod="spline" keySplines="0.3 0.1 0.7 0.9;0.3 0.1 0.7 0.9;0.3 0.1 0.7 0.9" begin="-5.714285714285714s" values="M 894 413 C 894 445 823 478 792 488 C 761 498 705 499 686 473 C 667 447 662 376 681 350 C 700 324 760 331 791 341 C 822 351 894 381 894 413;M 886 413 C 886 448 835 504 801 515 C 767 526 703 504 682 475 C 661 446 657 375 678 347 C 699 319 764 310 798 321 C 832 332 886 378 886 413;M 935 413 C 935 455 842 506 802 519 C 762 532 676 532 651 498 C 626 464 635 369 660 335 C 685 301 767 280 807 293 C 847 306 935 371 935 413;M 894 413 C 894 445 823 478 792 488 C 761 498 705 499 686 473 C 667 447 662 376 681 350 C 700 324 760 331 791 341 C 822 351 894 381 894 413"></animate>
</path><path d="M 893 413 C 893 449 833 499 799 510 C 765 521 688 515 667 486 C 646 457 655 375 676 346 C 697 317 765 308 799 319 C 833 330 893 377 893 413" fill="url(#lg-0.8266873056142017)" opacity="0.69">
  <animate attributeName="d" dur="20s" repeatCount="indefinite" keyTimes="0;0.3333333333333333;0.6666666666666666;1" calcmod="spline" keySplines="0.3 0.1 0.7 0.9;0.3 0.1 0.7 0.9;0.3 0.1 0.7 0.9" begin="-5.714285714285714s" values="M 893 413 C 893 449 833 499 799 510 C 765 521 688 515 667 486 C 646 457 655 375 676 346 C 697 317 765 308 799 319 C 833 330 893 377 893 413;M 872 413 C 872 445 825 487 795 497 C 765 507 696 505 677 479 C 658 453 662 376 681 350 C 700 324 763 327 793 337 C 823 347 872 381 872 413;M 908 413 C 908 454 841 503 802 516 C 763 529 684 525 660 492 C 636 459 644 373 668 340 C 692 307 762 298 801 311 C 840 324 908 372 908 413;M 893 413 C 893 449 833 499 799 510 C 765 521 688 515 667 486 C 646 457 655 375 676 346 C 697 317 765 308 799 319 C 833 330 893 377 893 413"></animate>
</path><path d="M 905 413 C 905 449 829 483 794 494 C 759 505 699 507 678 478 C 657 449 647 371 668 341 C 689 311 766 301 801 312 C 836 323 905 377 905 413" fill="url(#lg-0.8266873056142017)" opacity="0.69">
  <animate attributeName="d" dur="20s" repeatCount="indefinite" keyTimes="0;0.3333333333333333;0.6666666666666666;1" calcmod="spline" keySplines="0.3 0.1 0.7 0.9;0.3 0.1 0.7 0.9;0.3 0.1 0.7 0.9" begin="-5.714285714285714s" values="M 905 413 C 905 449 829 483 794 494 C 759 505 699 507 678 478 C 657 449 647 371 668 341 C 689 311 766 301 801 312 C 836 323 905 377 905 413;M 925 413 C 925 460 856 532 811 546 C 766 560 667 544 640 506 C 613 468 629 370 657 332 C 685 294 765 273 809 288 C 853 303 925 366 925 413;M 913 413 C 913 459 853 526 809 540 C 765 554 683 532 656 495 C 629 458 603 350 630 313 C 657 276 762 281 806 295 C 850 309 913 367 913 413;M 905 413 C 905 449 829 483 794 494 C 759 505 699 507 678 478 C 657 449 647 371 668 341 C 689 311 766 301 801 312 C 836 323 905 377 905 413"></animate>
</path><path d="M 883 413 C 883 446 822 474 791 484 C 760 494 698 503 679 477 C 660 451 672 383 691 357 C 710 331 765 316 796 326 C 827 336 883 380 883 413" fill="url(#lg-0.8266873056142017)" opacity="0.69">
  <animate attributeName="d" dur="20s" repeatCount="indefinite" keyTimes="0;0.3333333333333333;0.6666666666666666;1" calcmod="spline" keySplines="0.3 0.1 0.7 0.9;0.3 0.1 0.7 0.9;0.3 0.1 0.7 0.9" begin="-5.714285714285714s" values="M 883 413 C 883 446 822 474 791 484 C 760 494 698 503 679 477 C 660 451 672 383 691 357 C 710 331 765 316 796 326 C 827 336 883 380 883 413;M 871 413 C 871 446 823 477 792 487 C 761 497 708 497 689 471 C 670 445 656 371 675 345 C 694 319 762 327 793 337 C 824 347 871 380 871 413;M 949 413 C 949 459 854 529 810 543 C 766 557 684 530 657 493 C 630 456 621 363 648 326 C 675 289 760 288 804 302 C 848 316 949 367 949 413;M 883 413 C 883 446 822 474 791 484 C 760 494 698 503 679 477 C 660 451 672 383 691 357 C 710 331 765 316 796 326 C 827 336 883 380 883 413"></animate>
</path><path d="M 886 413 C 886 451 837 503 801 515 C 765 527 690 517 668 486 C 646 455 632 361 654 330 C 676 299 765 300 801 312 C 837 324 886 375 886 413" fill="url(#lg-0.8266873056142017)" opacity="0.69">
  <animate attributeName="d" dur="20s" repeatCount="indefinite" keyTimes="0;0.3333333333333333;0.6666666666666666;1" calcmod="spline" keySplines="0.3 0.1 0.7 0.9;0.3 0.1 0.7 0.9;0.3 0.1 0.7 0.9" begin="-5.714285714285714s" values="M 886 413 C 886 451 837 503 801 515 C 765 527 690 517 668 486 C 646 455 632 361 654 330 C 676 299 765 300 801 312 C 837 324 886 375 886 413;M 924 413 C 924 455 840 498 800 511 C 760 524 672 535 647 501 C 622 467 618 356 643 322 C 668 288 762 295 802 308 C 842 321 924 371 924 413;M 885 413 C 885 447 831 493 798 504 C 765 515 703 503 683 475 C 663 447 656 374 676 346 C 696 318 765 309 798 319 C 831 329 885 379 885 413;M 886 413 C 886 451 837 503 801 515 C 765 527 690 517 668 486 C 646 455 632 361 654 330 C 676 299 765 300 801 312 C 837 324 886 375 886 413"></animate>
</path><path d="M 899 413 C 899 451 836 498 800 510 C 764 522 693 513 671 483 C 649 453 647 371 669 341 C 691 311 763 305 799 317 C 835 329 899 375 899 413" fill="url(#lg-0.8266873056142017)" opacity="0.69">
  <animate attributeName="d" dur="20s" repeatCount="indefinite" keyTimes="0;0.3333333333333333;0.6666666666666666;1" calcmod="spline" keySplines="0.3 0.1 0.7 0.9;0.3 0.1 0.7 0.9;0.3 0.1 0.7 0.9" begin="-5.714285714285714s" values="M 899 413 C 899 451 836 498 800 510 C 764 522 693 513 671 483 C 649 453 647 371 669 341 C 691 311 763 305 799 317 C 835 329 899 375 899 413;M 892 413 C 892 450 831 484 795 496 C 759 508 691 515 669 485 C 647 455 643 368 665 338 C 687 308 762 310 798 322 C 834 334 892 376 892 413;M 907 413 C 907 456 846 515 805 528 C 764 541 687 525 662 490 C 637 455 628 365 653 330 C 678 295 758 303 799 316 C 840 329 907 370 907 413;M 899 413 C 899 451 836 498 800 510 C 764 522 693 513 671 483 C 649 453 647 371 669 341 C 691 311 763 305 799 317 C 835 329 899 375 899 413"></animate>
</path><path d="M 902 413 C 902 455 842 506 802 519 C 762 532 670 537 645 503 C 620 469 633 367 658 333 C 683 299 767 279 807 292 C 847 305 902 371 902 413" fill="url(#lg-0.8266873056142017)" opacity="0.69">
  <animate attributeName="d" dur="20s" repeatCount="indefinite" keyTimes="0;0.3333333333333333;0.6666666666666666;1" calcmod="spline" keySplines="0.3 0.1 0.7 0.9;0.3 0.1 0.7 0.9;0.3 0.1 0.7 0.9" begin="-5.714285714285714s" values="M 902 413 C 902 455 842 506 802 519 C 762 532 670 537 645 503 C 620 469 633 367 658 333 C 683 299 767 279 807 292 C 847 305 902 371 902 413;M 918 413 C 918 452 834 491 797 503 C 760 515 689 519 666 487 C 643 455 639 368 662 336 C 685 304 761 309 798 321 C 835 333 918 374 918 413;M 916 413 C 916 454 843 511 804 524 C 765 537 673 532 649 499 C 625 466 647 376 671 343 C 695 310 764 292 803 304 C 842 316 916 372 916 413;M 902 413 C 902 455 842 506 802 519 C 762 532 670 537 645 503 C 620 469 633 367 658 333 C 683 299 767 279 807 292 C 847 305 902 371 902 413"></animate>
</path></g>
</svg>