<?xml version="1.0" encoding="utf-8"?>
<svg xmlns="http://www.w3.org/2000/svg" xmlns:xlink="http://www.w3.org/1999/xlink" style="margin: auto; background: rgb(241, 242, 243); display: block; z-index: 1; position: relative; shape-rendering: auto;" width="1536" height="826" preserveAspectRatio="xMidYMid" viewBox="0 0 1536 826">
<g transform="translate(768,413) scale(1,1) translate(-768,-413)"><linearGradient id="lg-0.07118093929756353" x1="0" x2="1" y1="0" y2="0">
  <stop stop-color="#f5542e" offset="0"></stop>
  <stop stop-color="#f2c327" offset="1"></stop>
</linearGradient><path d="M 870 413 C 870 431 847 457 836 470 C 825 483 796 474 779 477 C 762 480 739 499 724 490 C 709 481 666 469 660 452 C 654 435 653 390 659 373 C 665 356 708 344 723 335 C 738 326 766 325 783 328 C 800 331 836 333 847 347 C 858 361 870 395 870 413" fill="url(#lg-0.07118093929756353)" opacity="0.6799999999999999">
  <animate attributeName="d" dur="10s" repeatCount="indefinite" keyTimes="0;0.3333333333333333;0.6666666666666666;1" calcmod="spline" keySplines="0.3 0.1 0.7 0.9;0.3 0.1 0.7 0.9;0.3 0.1 0.7 0.9" begin="-2s" values="M 870 413 C 870 431 847 457 836 470 C 825 483 796 474 779 477 C 762 480 739 499 724 490 C 709 481 666 469 660 452 C 654 435 653 390 659 373 C 665 356 708 344 723 335 C 738 326 766 325 783 328 C 800 331 836 333 847 347 C 858 361 870 395 870 413;M 866 413 C 866 431 867 472 856 486 C 845 500 800 494 783 497 C 766 500 731 513 716 504 C 701 495 670 468 664 451 C 658 434 660 393 666 376 C 672 359 706 341 721 332 C 736 323 766 323 783 326 C 800 329 831 338 842 351 C 853 364 866 395 866 413;M 875 413 C 875 431 866 473 855 486 C 844 499 800 495 783 498 C 766 501 742 493 727 484 C 712 475 680 464 674 447 C 668 430 664 394 670 377 C 676 360 705 339 720 330 C 735 321 762 346 779 349 C 796 352 827 341 838 354 C 849 367 875 395 875 413;M 870 413 C 870 431 847 457 836 470 C 825 483 796 474 779 477 C 762 480 739 499 724 490 C 709 481 666 469 660 452 C 654 435 653 390 659 373 C 665 356 708 344 723 335 C 738 326 766 325 783 328 C 800 331 836 333 847 347 C 858 361 870 395 870 413"></animate>
</path><path d="M 878 413 C 878 431 861 469 850 482 C 839 495 797 476 780 479 C 763 482 744 490 729 481 C 714 472 661 471 655 454 C 649 437 657 392 663 375 C 669 358 710 348 725 339 C 740 330 766 326 783 329 C 800 332 844 327 855 340 C 866 353 878 395 878 413" fill="url(#lg-0.07118093929756353)" opacity="0.6799999999999999">
  <animate attributeName="d" dur="10s" repeatCount="indefinite" keyTimes="0;0.3333333333333333;0.6666666666666666;1" calcmod="spline" keySplines="0.3 0.1 0.7 0.9;0.3 0.1 0.7 0.9;0.3 0.1 0.7 0.9" begin="-2s" values="M 878 413 C 878 431 861 469 850 482 C 839 495 797 476 780 479 C 763 482 744 490 729 481 C 714 472 661 471 655 454 C 649 437 657 392 663 375 C 669 358 710 348 725 339 C 740 330 766 326 783 329 C 800 332 844 327 855 340 C 866 353 878 395 878 413;M 870 413 C 870 431 867 474 856 487 C 845 500 799 492 782 495 C 765 498 731 512 716 503 C 701 494 679 464 673 447 C 667 430 664 394 670 377 C 676 360 705 339 720 330 C 735 321 763 340 780 343 C 797 346 835 334 846 347 C 857 360 870 395 870 413;M 883 413 C 883 431 859 468 848 481 C 837 494 799 488 782 491 C 765 494 733 509 718 500 C 703 491 678 465 672 448 C 666 431 661 393 667 376 C 673 359 712 350 727 341 C 742 332 765 329 782 332 C 799 335 844 327 855 340 C 866 353 883 395 883 413;M 878 413 C 878 431 861 469 850 482 C 839 495 797 476 780 479 C 763 482 744 490 729 481 C 714 472 661 471 655 454 C 649 437 657 392 663 375 C 669 358 710 348 725 339 C 740 330 766 326 783 329 C 800 332 844 327 855 340 C 866 353 878 395 878 413"></animate>
</path><path d="M 881 413 C 881 431 857 466 846 479 C 835 492 800 498 783 501 C 766 504 739 498 724 489 C 709 480 659 472 653 455 C 647 438 652 390 658 373 C 664 356 701 333 716 324 C 731 315 766 326 783 329 C 800 332 832 337 843 350 C 854 363 881 395 881 413" fill="url(#lg-0.07118093929756353)" opacity="0.6799999999999999">
  <animate attributeName="d" dur="10s" repeatCount="indefinite" keyTimes="0;0.3333333333333333;0.6666666666666666;1" calcmod="spline" keySplines="0.3 0.1 0.7 0.9;0.3 0.1 0.7 0.9;0.3 0.1 0.7 0.9" begin="-2s" values="M 881 413 C 881 431 857 466 846 479 C 835 492 800 498 783 501 C 766 504 739 498 724 489 C 709 480 659 472 653 455 C 647 438 652 390 658 373 C 664 356 701 333 716 324 C 731 315 766 326 783 329 C 800 332 832 337 843 350 C 854 363 881 395 881 413;M 893 413 C 893 431 857 464 846 478 C 835 492 797 477 780 480 C 763 483 744 490 729 481 C 714 472 660 471 654 454 C 648 437 660 393 666 376 C 672 359 703 335 718 326 C 733 317 767 320 784 323 C 801 326 838 332 849 345 C 860 358 893 395 893 413;M 892 413 C 892 431 866 473 855 486 C 844 499 799 487 782 490 C 765 493 736 504 721 495 C 706 486 674 466 668 450 C 662 434 658 392 664 375 C 670 358 704 337 719 328 C 734 319 763 344 780 347 C 797 350 843 328 854 341 C 865 354 892 395 892 413;M 881 413 C 881 431 857 466 846 479 C 835 492 800 498 783 501 C 766 504 739 498 724 489 C 709 480 659 472 653 455 C 647 438 652 390 658 373 C 664 356 701 333 716 324 C 731 315 766 326 783 329 C 800 332 832 337 843 350 C 854 363 881 395 881 413"></animate>
</path><path d="M 878 413 C 878 431 852 460 841 474 C 830 488 796 472 779 475 C 762 478 740 496 725 487 C 710 478 667 469 661 452 C 655 435 647 388 653 371 C 659 354 714 355 729 346 C 744 337 765 328 782 331 C 799 334 825 343 836 356 C 847 369 878 395 878 413" fill="url(#lg-0.07118093929756353)" opacity="0.6799999999999999">
  <animate attributeName="d" dur="10s" repeatCount="indefinite" keyTimes="0;0.3333333333333333;0.6666666666666666;1" calcmod="spline" keySplines="0.3 0.1 0.7 0.9;0.3 0.1 0.7 0.9;0.3 0.1 0.7 0.9" begin="-2s" values="M 878 413 C 878 431 852 460 841 474 C 830 488 796 472 779 475 C 762 478 740 496 725 487 C 710 478 667 469 661 452 C 655 435 647 388 653 371 C 659 354 714 355 729 346 C 744 337 765 328 782 331 C 799 334 825 343 836 356 C 847 369 878 395 878 413;M 885 413 C 885 431 867 474 856 487 C 845 500 800 495 783 498 C 766 501 734 506 719 497 C 704 488 675 466 669 449 C 663 432 668 396 674 379 C 680 362 710 348 725 339 C 740 330 764 337 781 340 C 798 343 838 332 849 345 C 860 358 885 395 885 413;M 869 413 C 869 431 852 460 841 474 C 830 488 799 487 782 490 C 765 493 734 507 719 498 C 704 489 659 472 653 455 C 647 438 646 388 652 371 C 658 354 706 341 721 332 C 736 323 762 345 779 348 C 796 351 828 340 839 353 C 850 366 869 395 869 413;M 878 413 C 878 431 852 460 841 474 C 830 488 796 472 779 475 C 762 478 740 496 725 487 C 710 478 667 469 661 452 C 655 435 647 388 653 371 C 659 354 714 355 729 346 C 744 337 765 328 782 331 C 799 334 825 343 836 356 C 847 369 878 395 878 413"></animate>
</path><path d="M 885 413 C 885 431 860 468 849 481 C 838 494 796 474 779 477 C 762 480 735 505 720 496 C 705 487 659 472 653 455 C 647 438 658 392 664 375 C 670 358 704 337 719 328 C 734 319 766 327 783 330 C 800 333 828 340 839 353 C 850 366 885 395 885 413" fill="url(#lg-0.07118093929756353)" opacity="0.6799999999999999">
  <animate attributeName="d" dur="10s" repeatCount="indefinite" keyTimes="0;0.3333333333333333;0.6666666666666666;1" calcmod="spline" keySplines="0.3 0.1 0.7 0.9;0.3 0.1 0.7 0.9;0.3 0.1 0.7 0.9" begin="-2s" values="M 885 413 C 885 431 860 468 849 481 C 838 494 796 474 779 477 C 762 480 735 505 720 496 C 705 487 659 472 653 455 C 647 438 658 392 664 375 C 670 358 704 337 719 328 C 734 319 766 327 783 330 C 800 333 828 340 839 353 C 850 366 885 395 885 413;M 872 413 C 872 431 859 467 848 480 C 837 493 797 480 780 483 C 763 486 743 492 728 483 C 713 474 660 472 654 455 C 648 438 651 390 657 373 C 663 356 707 343 722 334 C 737 325 767 321 784 324 C 801 327 839 331 850 344 C 861 357 872 395 872 413;M 870 413 C 870 431 857 466 846 479 C 835 492 799 488 782 491 C 765 494 731 513 716 504 C 701 495 678 465 672 448 C 666 431 668 396 674 379 C 680 362 709 345 724 336 C 739 327 765 331 782 334 C 799 337 834 335 845 348 C 856 361 870 395 870 413;M 885 413 C 885 431 860 468 849 481 C 838 494 796 474 779 477 C 762 480 735 505 720 496 C 705 487 659 472 653 455 C 647 438 658 392 664 375 C 670 358 704 337 719 328 C 734 319 766 327 783 330 C 800 333 828 340 839 353 C 850 366 885 395 885 413"></animate>
</path><path d="M 890 413 C 890 431 852 460 841 474 C 830 488 799 487 782 490 C 765 493 732 511 717 502 C 702 493 684 463 678 446 C 672 429 652 390 658 373 C 664 356 713 352 728 343 C 743 334 764 335 781 338 C 798 341 837 333 848 346 C 859 359 890 395 890 413" fill="url(#lg-0.07118093929756353)" opacity="0.6799999999999999">
  <animate attributeName="d" dur="10s" repeatCount="indefinite" keyTimes="0;0.3333333333333333;0.6666666666666666;1" calcmod="spline" keySplines="0.3 0.1 0.7 0.9;0.3 0.1 0.7 0.9;0.3 0.1 0.7 0.9" begin="-2s" values="M 890 413 C 890 431 852 460 841 474 C 830 488 799 487 782 490 C 765 493 732 511 717 502 C 702 493 684 463 678 446 C 672 429 652 390 658 373 C 664 356 713 352 728 343 C 743 334 764 335 781 338 C 798 341 837 333 848 346 C 859 359 890 395 890 413;M 866 413 C 866 431 863 469 852 483 C 841 497 800 493 783 496 C 766 499 731 512 716 503 C 701 494 672 467 666 450 C 660 433 651 390 657 373 C 663 356 711 349 726 340 C 741 331 763 344 780 347 C 797 350 841 329 852 343 C 863 357 866 395 866 413;M 892 413 C 892 431 849 459 838 472 C 827 485 796 474 779 477 C 762 480 736 504 721 495 C 706 486 680 464 674 447 C 668 430 667 396 673 379 C 679 362 710 348 725 339 C 740 330 765 329 782 332 C 799 335 836 333 847 347 C 858 361 892 395 892 413;M 890 413 C 890 431 852 460 841 474 C 830 488 799 487 782 490 C 765 493 732 511 717 502 C 702 493 684 463 678 446 C 672 429 652 390 658 373 C 664 356 713 352 728 343 C 743 334 764 335 781 338 C 798 341 837 333 848 346 C 859 359 890 395 890 413"></animate>
</path><path d="M 868 413 C 868 431 850 460 839 473 C 828 486 797 480 780 483 C 763 486 744 490 729 481 C 714 472 658 472 652 455 C 646 438 659 393 665 376 C 671 359 701 332 716 323 C 731 314 763 342 780 345 C 797 348 834 335 845 349 C 856 363 868 395 868 413" fill="url(#lg-0.07118093929756353)" opacity="0.6799999999999999">
  <animate attributeName="d" dur="10s" repeatCount="indefinite" keyTimes="0;0.3333333333333333;0.6666666666666666;1" calcmod="spline" keySplines="0.3 0.1 0.7 0.9;0.3 0.1 0.7 0.9;0.3 0.1 0.7 0.9" begin="-2s" values="M 868 413 C 868 431 850 460 839 473 C 828 486 797 480 780 483 C 763 486 744 490 729 481 C 714 472 658 472 652 455 C 646 438 659 393 665 376 C 671 359 701 332 716 323 C 731 314 763 342 780 345 C 797 348 834 335 845 349 C 856 363 868 395 868 413;M 869 413 C 869 431 859 467 848 480 C 837 493 797 480 780 483 C 763 486 732 510 717 501 C 702 492 670 468 664 451 C 658 434 663 394 669 377 C 675 360 704 337 719 328 C 734 319 767 321 784 324 C 801 327 841 329 852 343 C 863 357 869 395 869 413;M 884 413 C 884 431 860 468 849 481 C 838 494 798 482 781 485 C 764 488 735 506 720 497 C 705 488 673 467 667 450 C 661 433 662 394 668 377 C 674 360 710 348 725 339 C 740 330 763 342 780 345 C 797 348 833 336 844 349 C 855 362 884 395 884 413;M 868 413 C 868 431 850 460 839 473 C 828 486 797 480 780 483 C 763 486 744 490 729 481 C 714 472 658 472 652 455 C 646 438 659 393 665 376 C 671 359 701 332 716 323 C 731 314 763 342 780 345 C 797 348 834 335 845 349 C 856 363 868 395 868 413"></animate>
</path><path d="M 883 413 C 883 431 850 458 839 472 C 828 486 796 474 779 477 C 762 480 735 504 720 495 C 705 486 672 467 666 450 C 660 433 670 396 676 379 C 682 362 706 341 721 332 C 736 323 762 348 779 351 C 796 354 841 329 852 343 C 863 357 883 395 883 413" fill="url(#lg-0.07118093929756353)" opacity="0.6799999999999999">
  <animate attributeName="d" dur="10s" repeatCount="indefinite" keyTimes="0;0.3333333333333333;0.6666666666666666;1" calcmod="spline" keySplines="0.3 0.1 0.7 0.9;0.3 0.1 0.7 0.9;0.3 0.1 0.7 0.9" begin="-2s" values="M 883 413 C 883 431 850 458 839 472 C 828 486 796 474 779 477 C 762 480 735 504 720 495 C 705 486 672 467 666 450 C 660 433 670 396 676 379 C 682 362 706 341 721 332 C 736 323 762 348 779 351 C 796 354 841 329 852 343 C 863 357 883 395 883 413;M 891 413 C 891 431 851 461 840 474 C 829 487 800 494 783 497 C 766 500 742 494 727 485 C 712 476 680 464 674 447 C 668 430 663 394 669 377 C 675 360 704 338 719 329 C 734 320 764 337 781 340 C 798 343 826 342 837 355 C 848 368 891 395 891 413;M 871 413 C 871 431 859 467 848 480 C 837 493 799 487 782 490 C 765 493 741 495 726 486 C 711 477 661 471 655 454 C 649 437 670 396 676 379 C 682 362 706 341 721 332 C 736 323 763 341 780 344 C 797 347 845 326 856 339 C 867 352 871 395 871 413;M 883 413 C 883 431 850 458 839 472 C 828 486 796 474 779 477 C 762 480 735 504 720 495 C 705 486 672 467 666 450 C 660 433 670 396 676 379 C 682 362 706 341 721 332 C 736 323 762 348 779 351 C 796 354 841 329 852 343 C 863 357 883 395 883 413"></animate>
</path><path d="M 869 413 C 869 431 858 465 847 479 C 836 493 799 488 782 491 C 765 494 735 505 720 496 C 705 487 678 465 672 448 C 666 431 661 393 667 376 C 673 359 704 337 719 328 C 734 319 763 342 780 345 C 797 348 837 333 848 346 C 859 359 869 395 869 413" fill="url(#lg-0.07118093929756353)" opacity="0.6799999999999999">
  <animate attributeName="d" dur="10s" repeatCount="indefinite" keyTimes="0;0.3333333333333333;0.6666666666666666;1" calcmod="spline" keySplines="0.3 0.1 0.7 0.9;0.3 0.1 0.7 0.9;0.3 0.1 0.7 0.9" begin="-2s" values="M 869 413 C 869 431 858 465 847 479 C 836 493 799 488 782 491 C 765 494 735 505 720 496 C 705 487 678 465 672 448 C 666 431 661 393 667 376 C 673 359 704 337 719 328 C 734 319 763 342 780 345 C 797 348 837 333 848 346 C 859 359 869 395 869 413;M 876 413 C 876 431 851 461 840 474 C 829 487 798 482 781 485 C 764 488 739 498 724 489 C 709 480 680 464 674 447 C 668 430 668 396 674 379 C 680 362 706 341 721 332 C 736 323 763 340 780 343 C 797 346 836 333 847 347 C 858 361 876 395 876 413;M 888 413 C 888 431 853 462 842 475 C 831 488 800 494 783 497 C 766 500 731 512 716 503 C 701 494 660 472 654 455 C 648 438 670 397 676 380 C 682 363 711 349 726 340 C 741 331 763 341 780 344 C 797 347 834 335 845 348 C 856 361 888 395 888 413;M 869 413 C 869 431 858 465 847 479 C 836 493 799 488 782 491 C 765 494 735 505 720 496 C 705 487 678 465 672 448 C 666 431 661 393 667 376 C 673 359 704 337 719 328 C 734 319 763 342 780 345 C 797 348 837 333 848 346 C 859 359 869 395 869 413"></animate>
</path><path d="M 868 413 C 868 431 856 463 845 477 C 834 491 799 488 782 491 C 765 494 740 497 725 488 C 710 479 680 464 674 447 C 668 430 657 392 663 375 C 669 358 703 336 718 327 C 733 318 767 322 784 325 C 801 328 829 339 840 352 C 851 365 868 395 868 413" fill="url(#lg-0.07118093929756353)" opacity="0.6799999999999999">
  <animate attributeName="d" dur="10s" repeatCount="indefinite" keyTimes="0;0.3333333333333333;0.6666666666666666;1" calcmod="spline" keySplines="0.3 0.1 0.7 0.9;0.3 0.1 0.7 0.9;0.3 0.1 0.7 0.9" begin="-2s" values="M 868 413 C 868 431 856 463 845 477 C 834 491 799 488 782 491 C 765 494 740 497 725 488 C 710 479 680 464 674 447 C 668 430 657 392 663 375 C 669 358 703 336 718 327 C 733 318 767 322 784 325 C 801 328 829 339 840 352 C 851 365 868 395 868 413;M 892 413 C 892 431 859 467 848 480 C 837 493 800 492 783 495 C 766 498 735 505 720 496 C 705 487 682 463 676 446 C 670 429 651 390 657 373 C 663 356 712 351 727 342 C 742 333 765 329 782 332 C 799 335 840 330 851 343 C 862 356 892 395 892 413;M 873 413 C 873 431 848 458 837 471 C 826 484 800 495 783 498 C 766 501 738 499 723 490 C 708 481 665 470 659 453 C 653 436 654 391 660 374 C 666 357 704 336 719 327 C 734 318 762 347 779 350 C 796 353 836 333 847 346 C 858 359 873 395 873 413;M 868 413 C 868 431 856 463 845 477 C 834 491 799 488 782 491 C 765 494 740 497 725 488 C 710 479 680 464 674 447 C 668 430 657 392 663 375 C 669 358 703 336 718 327 C 733 318 767 322 784 325 C 801 328 829 339 840 352 C 851 365 868 395 868 413"></animate>
</path></g>
</svg>