<?xml version="1.0" encoding="utf-8"?>
<svg xmlns="http://www.w3.org/2000/svg" xmlns:xlink="http://www.w3.org/1999/xlink" style="margin: auto; background: rgb(241, 242, 243); display: block; z-index: 1; position: relative; shape-rendering: auto;" width="1536" height="826" preserveAspectRatio="xMidYMid" viewBox="0 0 1536 826">
<g transform="translate(768,413) scale(1,1) translate(-768,-413)"><linearGradient id="lg-0.9348884476266788" x1="0" x2="1" y1="0" y2="0">
  <stop stop-color="#a80909" offset="0"></stop>
  <stop stop-color="#d62e2e" offset="1"></stop>
</linearGradient><path d="M 1033 413 C 1033 432 1023 476 1017 494 C 1011 512 973 538 962 554 C 951 570 933 607 917 618 C 901 629 839 570 821 576 C 803 582 787 567 768 567 C 749 567 718 627 700 621 C 682 615 652 606 636 595 C 620 584 594 563 583 547 C 572 531 536 508 530 490 C 524 472 501 432 501 413 C 501 394 483 340 489 322 C 495 304 527 262 538 246 C 549 230 628 253 644 242 C 660 231 688 227 706 221 C 724 215 749 234 768 234 C 787 234 813 212 831 218 C 849 224 885 218 901 229 C 917 240 984 232 995 248 C 1006 264 990 321 996 339 C 1002 357 1033 394 1033 413" fill="url(#lg-0.9348884476266788)" opacity="0.4">
  <animate attributeName="d" dur="10s" repeatCount="indefinite" keyTimes="0;0.3333333333333333;0.6666666666666666;1" calcmod="spline" keySplines="0.3 0.1 0.7 0.9;0.3 0.1 0.7 0.9;0.3 0.1 0.7 0.9" begin="-2s" values="M 1033 413 C 1033 432 1023 476 1017 494 C 1011 512 973 538 962 554 C 951 570 933 607 917 618 C 901 629 839 570 821 576 C 803 582 787 567 768 567 C 749 567 718 627 700 621 C 682 615 652 606 636 595 C 620 584 594 563 583 547 C 572 531 536 508 530 490 C 524 472 501 432 501 413 C 501 394 483 340 489 322 C 495 304 527 262 538 246 C 549 230 628 253 644 242 C 660 231 688 227 706 221 C 724 215 749 234 768 234 C 787 234 813 212 831 218 C 849 224 885 218 901 229 C 917 240 984 232 995 248 C 1006 264 990 321 996 339 C 1002 357 1033 394 1033 413;M 999 413 C 999 431 1017 475 1011 492 C 1005 509 983 546 972 561 C 961 576 905 570 890 581 C 875 592 843 586 826 592 C 809 598 786 542 768 542 C 750 542 728 596 711 590 C 694 584 648 609 633 598 C 618 587 585 569 574 554 C 563 539 547 504 541 487 C 535 470 528 431 528 413 C 528 395 536 357 542 340 C 548 323 575 296 586 281 C 597 266 612 229 627 218 C 642 207 700 263 717 257 C 734 251 750 268 768 268 C 786 268 800 255 817 261 C 834 267 870 241 885 252 C 900 263 931 272 942 287 C 953 302 1026 310 1032 327 C 1038 344 999 395 999 413;M 955 413 C 955 426 955 459 951 472 C 947 485 934 517 926 528 C 918 539 863 521 852 529 C 841 537 819 527 806 531 C 793 535 781 553 768 553 C 755 553 741 540 728 536 C 715 532 680 557 669 549 C 658 541 651 515 643 504 C 635 493 614 477 610 464 C 606 451 575 426 575 413 C 575 400 595 371 599 358 C 603 345 636 334 644 323 C 652 312 670 301 681 293 C 692 285 713 289 726 285 C 739 281 755 301 768 301 C 781 301 797 278 810 282 C 823 286 856 268 867 276 C 878 284 904 297 912 308 C 920 319 953 338 957 351 C 961 364 955 400 955 413;M 1033 413 C 1033 432 1023 476 1017 494 C 1011 512 973 538 962 554 C 951 570 933 607 917 618 C 901 629 839 570 821 576 C 803 582 787 567 768 567 C 749 567 718 627 700 621 C 682 615 652 606 636 595 C 620 584 594 563 583 547 C 572 531 536 508 530 490 C 524 472 501 432 501 413 C 501 394 483 340 489 322 C 495 304 527 262 538 246 C 549 230 628 253 644 242 C 660 231 688 227 706 221 C 724 215 749 234 768 234 C 787 234 813 212 831 218 C 849 224 885 218 901 229 C 917 240 984 232 995 248 C 1006 264 990 321 996 339 C 1002 357 1033 394 1033 413"></animate>
</path><path d="M 1030 413 C 1030 432 1055 486 1049 504 C 1043 522 978 543 967 558 C 956 573 925 597 910 608 C 895 619 842 581 824 587 C 806 593 787 568 768 568 C 749 568 718 628 700 622 C 682 616 653 603 638 592 C 623 581 574 577 563 562 C 552 547 545 505 539 487 C 533 469 473 432 473 413 C 473 394 490 343 496 325 C 502 307 560 285 571 270 C 582 255 618 238 633 227 C 648 216 678 199 696 193 C 714 187 749 228 768 228 C 787 228 817 201 835 207 C 853 213 869 242 884 253 C 899 264 946 260 957 275 C 968 290 1001 317 1007 335 C 1013 353 1030 394 1030 413" fill="url(#lg-0.9348884476266788)" opacity="0.4">
  <animate attributeName="d" dur="10s" repeatCount="indefinite" keyTimes="0;0.3333333333333333;0.6666666666666666;1" calcmod="spline" keySplines="0.3 0.1 0.7 0.9;0.3 0.1 0.7 0.9;0.3 0.1 0.7 0.9" begin="-2s" values="M 1030 413 C 1030 432 1055 486 1049 504 C 1043 522 978 543 967 558 C 956 573 925 597 910 608 C 895 619 842 581 824 587 C 806 593 787 568 768 568 C 749 568 718 628 700 622 C 682 616 653 603 638 592 C 623 581 574 577 563 562 C 552 547 545 505 539 487 C 533 469 473 432 473 413 C 473 394 490 343 496 325 C 502 307 560 285 571 270 C 582 255 618 238 633 227 C 648 216 678 199 696 193 C 714 187 749 228 768 228 C 787 228 817 201 835 207 C 853 213 869 242 884 253 C 899 264 946 260 957 275 C 968 290 1001 317 1007 335 C 1013 353 1030 394 1030 413;M 963 413 C 963 425 929 452 925 464 C 921 476 914 504 907 514 C 900 524 859 517 849 524 C 839 531 817 524 805 528 C 793 532 780 511 768 511 C 756 511 734 559 722 555 C 710 551 686 547 676 540 C 666 533 659 507 652 497 C 645 487 617 475 613 463 C 609 451 613 425 613 413 C 613 401 596 371 600 359 C 604 347 615 317 622 307 C 629 297 671 301 681 294 C 691 287 714 288 726 284 C 738 280 756 324 768 324 C 780 324 791 303 803 307 C 815 311 833 303 843 310 C 853 317 890 309 897 319 C 904 329 939 344 943 356 C 947 368 963 401 963 413;M 1035 413 C 1035 430 994 469 989 485 C 984 501 976 543 966 557 C 956 571 888 548 874 558 C 860 568 835 565 819 570 C 803 575 785 556 768 556 C 751 556 721 613 705 608 C 689 603 666 582 652 572 C 638 562 584 568 574 554 C 564 540 576 493 571 477 C 566 461 505 430 505 413 C 505 396 558 363 563 347 C 568 331 562 285 572 271 C 582 257 645 273 659 263 C 673 253 699 255 715 250 C 731 245 751 266 768 266 C 785 266 811 227 827 232 C 843 237 872 241 886 251 C 900 261 956 255 966 269 C 976 283 1010 317 1015 333 C 1020 349 1035 396 1035 413;M 1030 413 C 1030 432 1055 486 1049 504 C 1043 522 978 543 967 558 C 956 573 925 597 910 608 C 895 619 842 581 824 587 C 806 593 787 568 768 568 C 749 568 718 628 700 622 C 682 616 653 603 638 592 C 623 581 574 577 563 562 C 552 547 545 505 539 487 C 533 469 473 432 473 413 C 473 394 490 343 496 325 C 502 307 560 285 571 270 C 582 255 618 238 633 227 C 648 216 678 199 696 193 C 714 187 749 228 768 228 C 787 228 817 201 835 207 C 853 213 869 242 884 253 C 899 264 946 260 957 275 C 968 290 1001 317 1007 335 C 1013 353 1030 394 1030 413"></animate>
</path><path d="M 998 413 C 998 430 1005 472 1000 488 C 995 504 939 516 929 530 C 919 544 909 578 895 588 C 881 598 841 584 825 589 C 809 594 785 571 768 571 C 751 571 735 568 719 563 C 703 558 650 604 636 594 C 622 584 608 551 598 537 C 588 523 531 508 526 492 C 521 476 519 430 519 413 C 519 396 530 353 535 337 C 540 321 584 300 594 286 C 604 272 629 250 643 240 C 657 230 705 272 721 267 C 737 262 751 277 768 277 C 785 277 813 220 829 225 C 845 230 880 230 894 240 C 908 250 915 285 925 299 C 935 313 976 328 981 344 C 986 360 998 396 998 413" fill="url(#lg-0.9348884476266788)" opacity="0.4">
  <animate attributeName="d" dur="10s" repeatCount="indefinite" keyTimes="0;0.3333333333333333;0.6666666666666666;1" calcmod="spline" keySplines="0.3 0.1 0.7 0.9;0.3 0.1 0.7 0.9;0.3 0.1 0.7 0.9" begin="-2s" values="M 998 413 C 998 430 1005 472 1000 488 C 995 504 939 516 929 530 C 919 544 909 578 895 588 C 881 598 841 584 825 589 C 809 594 785 571 768 571 C 751 571 735 568 719 563 C 703 558 650 604 636 594 C 622 584 608 551 598 537 C 588 523 531 508 526 492 C 521 476 519 430 519 413 C 519 396 530 353 535 337 C 540 321 584 300 594 286 C 604 272 629 250 643 240 C 657 230 705 272 721 267 C 737 262 751 277 768 277 C 785 277 813 220 829 225 C 845 230 880 230 894 240 C 908 250 915 285 925 299 C 935 313 976 328 981 344 C 986 360 998 396 998 413;M 959 413 C 959 426 929 452 925 464 C 921 476 915 503 907 514 C 899 525 862 520 851 528 C 840 536 830 562 818 566 C 806 570 781 520 768 520 C 755 520 735 556 723 552 C 711 548 681 555 670 547 C 659 539 628 532 620 521 C 612 510 596 482 592 470 C 588 458 574 426 574 413 C 574 400 591 369 595 357 C 599 345 627 327 635 316 C 643 305 654 280 665 272 C 676 264 706 265 718 261 C 730 257 755 285 768 285 C 781 285 797 283 809 287 C 821 291 842 288 853 296 C 864 304 888 309 896 320 C 904 331 952 340 956 352 C 960 364 959 400 959 413;M 984 413 C 984 428 973 464 968 478 C 963 492 922 507 913 519 C 904 531 890 556 878 565 C 866 574 833 565 819 570 C 805 575 783 549 768 549 C 753 549 742 541 728 536 C 714 531 682 556 670 547 C 658 538 616 542 607 530 C 598 518 561 496 556 482 C 551 468 579 428 579 413 C 579 398 593 372 598 358 C 603 344 592 304 601 292 C 610 280 639 261 651 252 C 663 243 702 258 716 253 C 730 248 753 284 768 284 C 783 284 807 246 821 251 C 835 256 860 261 872 270 C 884 279 898 300 907 312 C 916 324 934 343 939 357 C 944 371 984 398 984 413;M 998 413 C 998 430 1005 472 1000 488 C 995 504 939 516 929 530 C 919 544 909 578 895 588 C 881 598 841 584 825 589 C 809 594 785 571 768 571 C 751 571 735 568 719 563 C 703 558 650 604 636 594 C 622 584 608 551 598 537 C 588 523 531 508 526 492 C 521 476 519 430 519 413 C 519 396 530 353 535 337 C 540 321 584 300 594 286 C 604 272 629 250 643 240 C 657 230 705 272 721 267 C 737 262 751 277 768 277 C 785 277 813 220 829 225 C 845 230 880 230 894 240 C 908 250 915 285 925 299 C 935 313 976 328 981 344 C 986 360 998 396 998 413"></animate>
</path><path d="M 998 413 C 998 428 992 470 987 484 C 982 498 937 517 928 529 C 919 541 898 566 886 575 C 874 584 838 581 824 586 C 810 591 783 519 768 519 C 753 519 726 591 712 586 C 698 581 683 555 671 546 C 659 537 612 545 603 533 C 594 521 595 485 590 471 C 585 457 568 428 568 413 C 568 398 557 360 562 346 C 567 332 597 307 606 295 C 615 283 636 257 648 248 C 660 239 700 252 714 247 C 728 242 753 278 768 278 C 783 278 807 244 821 249 C 835 254 847 278 859 287 C 871 296 929 278 938 290 C 947 302 959 335 964 349 C 969 363 998 398 998 413" fill="url(#lg-0.9348884476266788)" opacity="0.4">
  <animate attributeName="d" dur="10s" repeatCount="indefinite" keyTimes="0;0.3333333333333333;0.6666666666666666;1" calcmod="spline" keySplines="0.3 0.1 0.7 0.9;0.3 0.1 0.7 0.9;0.3 0.1 0.7 0.9" begin="-2s" values="M 998 413 C 998 428 992 470 987 484 C 982 498 937 517 928 529 C 919 541 898 566 886 575 C 874 584 838 581 824 586 C 810 591 783 519 768 519 C 753 519 726 591 712 586 C 698 581 683 555 671 546 C 659 537 612 545 603 533 C 594 521 595 485 590 471 C 585 457 568 428 568 413 C 568 398 557 360 562 346 C 567 332 597 307 606 295 C 615 283 636 257 648 248 C 660 239 700 252 714 247 C 728 242 753 278 768 278 C 783 278 807 244 821 249 C 835 254 847 278 859 287 C 871 296 929 278 938 290 C 947 302 959 335 964 349 C 969 363 998 398 998 413;M 981 413 C 981 427 964 462 960 475 C 956 488 929 514 921 525 C 913 536 885 551 874 559 C 863 567 822 534 809 538 C 796 542 782 519 768 519 C 754 519 730 574 717 570 C 704 566 692 541 681 533 C 670 525 625 534 617 523 C 609 512 585 487 581 474 C 577 461 567 427 567 413 C 567 399 588 369 592 356 C 596 343 601 308 609 297 C 617 286 651 275 662 267 C 673 259 710 277 723 273 C 736 269 754 282 768 282 C 782 282 803 260 816 264 C 829 268 867 254 878 262 C 889 270 912 291 920 302 C 928 313 934 345 938 358 C 942 371 981 399 981 413;M 974 413 C 974 429 965 461 960 476 C 955 491 949 525 940 538 C 931 551 894 560 881 569 C 868 578 831 557 816 562 C 801 567 784 574 768 574 C 752 574 725 596 710 591 C 695 586 663 584 650 575 C 637 566 601 554 592 541 C 583 528 578 491 573 476 C 568 461 541 429 541 413 C 541 397 549 358 554 343 C 559 328 605 314 614 301 C 623 288 654 283 667 274 C 680 265 693 234 708 229 C 723 224 752 261 768 261 C 784 261 800 263 815 268 C 830 273 857 263 870 272 C 883 281 938 270 947 283 C 956 296 978 328 983 343 C 988 358 974 397 974 413;M 998 413 C 998 428 992 470 987 484 C 982 498 937 517 928 529 C 919 541 898 566 886 575 C 874 584 838 581 824 586 C 810 591 783 519 768 519 C 753 519 726 591 712 586 C 698 581 683 555 671 546 C 659 537 612 545 603 533 C 594 521 595 485 590 471 C 585 457 568 428 568 413 C 568 398 557 360 562 346 C 567 332 597 307 606 295 C 615 283 636 257 648 248 C 660 239 700 252 714 247 C 728 242 753 278 768 278 C 783 278 807 244 821 249 C 835 254 847 278 859 287 C 871 296 929 278 938 290 C 947 302 959 335 964 349 C 969 363 998 398 998 413"></animate>
</path><path d="M 954 413 C 954 426 922 450 918 462 C 914 474 931 516 923 526 C 915 536 873 536 863 544 C 853 552 816 519 804 523 C 792 527 781 510 768 510 C 755 510 742 535 730 531 C 718 527 684 551 674 543 C 664 535 626 532 618 522 C 610 512 623 473 619 461 C 615 449 599 426 599 413 C 599 400 611 375 615 363 C 619 351 624 324 632 314 C 640 304 675 307 685 299 C 695 291 718 301 730 297 C 742 293 755 298 768 298 C 781 298 791 301 803 305 C 815 309 861 263 871 271 C 881 279 897 303 905 313 C 913 323 927 348 931 360 C 935 372 954 400 954 413" fill="url(#lg-0.9348884476266788)" opacity="0.4">
  <animate attributeName="d" dur="10s" repeatCount="indefinite" keyTimes="0;0.3333333333333333;0.6666666666666666;1" calcmod="spline" keySplines="0.3 0.1 0.7 0.9;0.3 0.1 0.7 0.9;0.3 0.1 0.7 0.9" begin="-2s" values="M 954 413 C 954 426 922 450 918 462 C 914 474 931 516 923 526 C 915 536 873 536 863 544 C 853 552 816 519 804 523 C 792 527 781 510 768 510 C 755 510 742 535 730 531 C 718 527 684 551 674 543 C 664 535 626 532 618 522 C 610 512 623 473 619 461 C 615 449 599 426 599 413 C 599 400 611 375 615 363 C 619 351 624 324 632 314 C 640 304 675 307 685 299 C 695 291 718 301 730 297 C 742 293 755 298 768 298 C 781 298 791 301 803 305 C 815 309 861 263 871 271 C 881 279 897 303 905 313 C 913 323 927 348 931 360 C 935 372 954 400 954 413;M 1028 413 C 1028 432 1025 476 1019 494 C 1013 512 980 543 969 559 C 958 575 922 592 906 603 C 890 614 843 582 825 588 C 807 594 787 574 768 574 C 749 574 723 611 705 605 C 687 599 656 600 640 589 C 624 578 582 572 571 556 C 560 540 523 513 517 495 C 511 477 463 432 463 413 C 463 394 517 352 523 334 C 529 316 564 289 575 273 C 586 257 623 247 639 236 C 655 225 689 231 707 225 C 725 219 749 237 768 237 C 787 237 813 213 831 219 C 849 225 869 240 885 251 C 901 262 938 265 949 281 C 960 297 1003 317 1009 335 C 1015 353 1028 394 1028 413;M 947 413 C 947 426 949 458 945 470 C 941 482 894 489 886 499 C 878 509 871 535 861 542 C 851 549 822 537 810 541 C 798 545 781 540 768 540 C 755 540 746 523 734 519 C 722 515 685 549 675 541 C 665 533 626 532 618 522 C 610 512 600 481 596 469 C 592 457 571 426 571 413 C 571 400 599 371 603 359 C 607 347 642 337 650 327 C 658 317 670 300 680 292 C 690 284 710 274 722 270 C 734 266 755 279 768 279 C 781 279 802 268 814 272 C 826 276 846 284 856 292 C 866 300 903 299 911 309 C 919 319 934 346 938 358 C 942 370 947 400 947 413;M 954 413 C 954 426 922 450 918 462 C 914 474 931 516 923 526 C 915 536 873 536 863 544 C 853 552 816 519 804 523 C 792 527 781 510 768 510 C 755 510 742 535 730 531 C 718 527 684 551 674 543 C 664 535 626 532 618 522 C 610 512 623 473 619 461 C 615 449 599 426 599 413 C 599 400 611 375 615 363 C 619 351 624 324 632 314 C 640 304 675 307 685 299 C 695 291 718 301 730 297 C 742 293 755 298 768 298 C 781 298 791 301 803 305 C 815 309 861 263 871 271 C 881 279 897 303 905 313 C 913 323 927 348 931 360 C 935 372 954 400 954 413"></animate>
</path><path d="M 1000 413 C 1000 430 980 464 975 480 C 970 496 974 543 964 556 C 954 569 886 547 873 557 C 860 567 834 562 818 567 C 802 572 785 584 768 584 C 751 584 738 560 722 555 C 706 550 661 589 648 579 C 635 569 593 561 583 548 C 573 535 535 506 530 490 C 525 474 532 430 532 413 C 532 396 527 352 532 336 C 537 320 592 306 602 293 C 612 280 635 258 648 248 C 661 238 690 228 706 223 C 722 218 751 289 768 289 C 785 289 805 245 821 250 C 837 255 888 220 901 230 C 914 240 952 259 962 272 C 972 285 978 327 983 343 C 988 359 1000 396 1000 413" fill="url(#lg-0.9348884476266788)" opacity="0.4">
  <animate attributeName="d" dur="10s" repeatCount="indefinite" keyTimes="0;0.3333333333333333;0.6666666666666666;1" calcmod="spline" keySplines="0.3 0.1 0.7 0.9;0.3 0.1 0.7 0.9;0.3 0.1 0.7 0.9" begin="-2s" values="M 1000 413 C 1000 430 980 464 975 480 C 970 496 974 543 964 556 C 954 569 886 547 873 557 C 860 567 834 562 818 567 C 802 572 785 584 768 584 C 751 584 738 560 722 555 C 706 550 661 589 648 579 C 635 569 593 561 583 548 C 573 535 535 506 530 490 C 525 474 532 430 532 413 C 532 396 527 352 532 336 C 537 320 592 306 602 293 C 612 280 635 258 648 248 C 661 238 690 228 706 223 C 722 218 751 289 768 289 C 785 289 805 245 821 250 C 837 255 888 220 901 230 C 914 240 952 259 962 272 C 972 285 978 327 983 343 C 988 359 1000 396 1000 413;M 1020 413 C 1020 430 970 461 965 477 C 960 493 971 539 961 553 C 951 567 901 567 887 577 C 873 587 830 549 814 554 C 798 559 785 570 768 570 C 751 570 732 577 716 572 C 700 567 653 601 639 591 C 625 581 575 574 565 560 C 555 546 532 507 527 491 C 522 475 536 430 536 413 C 536 396 539 356 544 340 C 549 324 554 279 564 265 C 574 251 631 254 645 244 C 659 234 692 233 708 228 C 724 223 751 270 768 270 C 785 270 812 222 828 227 C 844 232 876 236 890 246 C 904 256 918 283 928 297 C 938 311 1004 319 1009 335 C 1014 351 1020 396 1020 413;M 986 413 C 986 427 974 466 970 479 C 966 492 940 521 932 532 C 924 543 879 542 868 550 C 857 558 833 568 820 572 C 807 576 782 523 768 523 C 754 523 739 547 726 543 C 713 539 683 553 672 545 C 661 537 634 527 626 516 C 618 505 572 491 568 478 C 564 465 575 427 575 413 C 575 399 595 371 599 358 C 603 345 622 324 630 313 C 638 302 669 299 680 291 C 691 283 704 261 717 257 C 730 253 754 273 768 273 C 782 273 808 245 821 249 C 834 253 870 250 881 258 C 892 266 911 293 919 304 C 927 315 964 335 968 348 C 972 361 986 399 986 413;M 1000 413 C 1000 430 980 464 975 480 C 970 496 974 543 964 556 C 954 569 886 547 873 557 C 860 567 834 562 818 567 C 802 572 785 584 768 584 C 751 584 738 560 722 555 C 706 550 661 589 648 579 C 635 569 593 561 583 548 C 573 535 535 506 530 490 C 525 474 532 430 532 413 C 532 396 527 352 532 336 C 537 320 592 306 602 293 C 612 280 635 258 648 248 C 661 238 690 228 706 223 C 722 218 751 289 768 289 C 785 289 805 245 821 250 C 837 255 888 220 901 230 C 914 240 952 259 962 272 C 972 285 978 327 983 343 C 988 359 1000 396 1000 413"></animate>
</path><path d="M 1030 413 C 1030 432 1013 473 1007 491 C 1001 509 960 529 949 544 C 938 559 905 569 890 580 C 875 591 853 614 835 620 C 817 626 787 615 768 615 C 749 615 733 581 715 575 C 697 569 640 621 625 610 C 610 599 576 576 565 561 C 554 546 524 512 518 494 C 512 476 521 432 521 413 C 521 394 541 359 547 341 C 553 323 547 276 558 261 C 569 246 619 240 634 229 C 649 218 687 227 705 221 C 723 215 749 273 768 273 C 787 273 816 204 834 210 C 852 216 884 222 899 233 C 914 244 957 252 968 267 C 979 282 1045 303 1051 321 C 1057 339 1030 394 1030 413" fill="url(#lg-0.9348884476266788)" opacity="0.4">
  <animate attributeName="d" dur="10s" repeatCount="indefinite" keyTimes="0;0.3333333333333333;0.6666666666666666;1" calcmod="spline" keySplines="0.3 0.1 0.7 0.9;0.3 0.1 0.7 0.9;0.3 0.1 0.7 0.9" begin="-2s" values="M 1030 413 C 1030 432 1013 473 1007 491 C 1001 509 960 529 949 544 C 938 559 905 569 890 580 C 875 591 853 614 835 620 C 817 626 787 615 768 615 C 749 615 733 581 715 575 C 697 569 640 621 625 610 C 610 599 576 576 565 561 C 554 546 524 512 518 494 C 512 476 521 432 521 413 C 521 394 541 359 547 341 C 553 323 547 276 558 261 C 569 246 619 240 634 229 C 649 218 687 227 705 221 C 723 215 749 273 768 273 C 787 273 816 204 834 210 C 852 216 884 222 899 233 C 914 244 957 252 968 267 C 979 282 1045 303 1051 321 C 1057 339 1030 394 1030 413;M 992 413 C 992 428 997 471 992 486 C 987 501 945 522 936 535 C 927 548 891 556 879 565 C 867 574 836 573 821 578 C 806 583 783 544 768 544 C 753 544 727 591 712 586 C 697 581 675 566 663 557 C 651 548 630 533 621 520 C 612 507 583 490 578 475 C 573 460 528 428 528 413 C 528 398 535 354 540 339 C 545 324 599 310 608 297 C 617 284 643 268 656 259 C 669 250 703 265 718 260 C 733 255 753 286 768 286 C 783 286 802 259 817 264 C 832 269 874 242 886 251 C 898 260 932 275 941 288 C 950 301 993 323 998 338 C 1003 353 992 398 992 413;M 1006 413 C 1006 431 1014 474 1008 491 C 1002 508 988 550 977 565 C 966 580 918 587 903 598 C 888 609 849 604 832 610 C 815 616 786 578 768 578 C 750 578 724 606 707 600 C 690 594 674 574 659 563 C 644 552 604 555 593 540 C 582 525 531 509 525 492 C 519 475 483 431 483 413 C 483 395 495 343 501 326 C 507 309 564 288 575 273 C 586 258 635 262 650 251 C 665 240 684 214 701 208 C 718 202 750 267 768 267 C 786 267 801 253 818 259 C 835 265 892 210 907 221 C 922 232 940 265 951 280 C 962 295 976 326 982 343 C 988 360 1006 395 1006 413;M 1030 413 C 1030 432 1013 473 1007 491 C 1001 509 960 529 949 544 C 938 559 905 569 890 580 C 875 591 853 614 835 620 C 817 626 787 615 768 615 C 749 615 733 581 715 575 C 697 569 640 621 625 610 C 610 599 576 576 565 561 C 554 546 524 512 518 494 C 512 476 521 432 521 413 C 521 394 541 359 547 341 C 553 323 547 276 558 261 C 569 246 619 240 634 229 C 649 218 687 227 705 221 C 723 215 749 273 768 273 C 787 273 816 204 834 210 C 852 216 884 222 899 233 C 914 244 957 252 968 267 C 979 282 1045 303 1051 321 C 1057 339 1030 394 1030 413"></animate>
</path><path d="M 965 413 C 965 428 987 467 982 482 C 977 497 952 528 943 540 C 934 552 884 547 872 556 C 860 565 828 548 813 553 C 798 558 783 524 768 524 C 753 524 741 546 726 541 C 711 536 663 583 651 574 C 639 565 595 558 586 546 C 577 534 572 493 567 478 C 562 463 537 428 537 413 C 537 398 560 362 565 347 C 570 332 613 319 622 307 C 631 295 649 275 661 266 C 673 257 699 251 714 246 C 729 241 753 254 768 254 C 783 254 795 279 810 284 C 825 289 873 244 885 253 C 897 262 930 277 939 289 C 948 301 952 337 957 352 C 962 367 965 398 965 413" fill="url(#lg-0.9348884476266788)" opacity="0.4">
  <animate attributeName="d" dur="10s" repeatCount="indefinite" keyTimes="0;0.3333333333333333;0.6666666666666666;1" calcmod="spline" keySplines="0.3 0.1 0.7 0.9;0.3 0.1 0.7 0.9;0.3 0.1 0.7 0.9" begin="-2s" values="M 965 413 C 965 428 987 467 982 482 C 977 497 952 528 943 540 C 934 552 884 547 872 556 C 860 565 828 548 813 553 C 798 558 783 524 768 524 C 753 524 741 546 726 541 C 711 536 663 583 651 574 C 639 565 595 558 586 546 C 577 534 572 493 567 478 C 562 463 537 428 537 413 C 537 398 560 362 565 347 C 570 332 613 319 622 307 C 631 295 649 275 661 266 C 673 257 699 251 714 246 C 729 241 753 254 768 254 C 783 254 795 279 810 284 C 825 289 873 244 885 253 C 897 262 930 277 939 289 C 948 301 952 337 957 352 C 962 367 965 398 965 413;M 955 413 C 955 425 915 447 911 459 C 907 471 911 502 904 512 C 897 522 863 523 853 530 C 843 537 824 544 812 548 C 800 552 780 501 768 501 C 756 501 740 541 728 537 C 716 533 687 545 677 538 C 667 531 659 507 652 497 C 645 487 619 475 615 463 C 611 451 604 425 604 413 C 604 401 621 379 625 367 C 629 355 618 319 625 309 C 632 299 674 305 684 298 C 694 291 722 311 734 307 C 746 303 756 301 768 301 C 780 301 800 273 812 277 C 824 281 853 275 863 282 C 873 289 879 317 886 327 C 893 337 918 351 922 363 C 926 375 955 401 955 413;M 981 413 C 981 430 985 466 980 482 C 975 498 982 548 972 562 C 962 576 895 559 881 569 C 867 579 845 595 829 600 C 813 605 785 567 768 567 C 751 567 722 609 706 604 C 690 599 668 580 654 570 C 640 560 592 562 582 548 C 572 534 552 501 547 485 C 542 469 539 430 539 413 C 539 396 526 352 531 336 C 536 320 554 279 564 265 C 574 251 630 252 644 242 C 658 232 700 259 716 254 C 732 249 751 247 768 247 C 785 247 816 211 832 216 C 848 221 861 256 875 266 C 889 276 932 273 942 287 C 952 301 983 326 988 342 C 993 358 981 396 981 413;M 965 413 C 965 428 987 467 982 482 C 977 497 952 528 943 540 C 934 552 884 547 872 556 C 860 565 828 548 813 553 C 798 558 783 524 768 524 C 753 524 741 546 726 541 C 711 536 663 583 651 574 C 639 565 595 558 586 546 C 577 534 572 493 567 478 C 562 463 537 428 537 413 C 537 398 560 362 565 347 C 570 332 613 319 622 307 C 631 295 649 275 661 266 C 673 257 699 251 714 246 C 729 241 753 254 768 254 C 783 254 795 279 810 284 C 825 289 873 244 885 253 C 897 262 930 277 939 289 C 948 301 952 337 957 352 C 962 367 965 398 965 413"></animate>
</path><path d="M 984 413 C 984 430 984 465 979 482 C 974 499 950 524 940 538 C 930 552 912 582 898 592 C 884 602 846 595 829 600 C 812 605 785 567 768 567 C 751 567 734 574 717 569 C 700 564 666 583 652 573 C 638 563 613 547 603 533 C 593 519 553 502 548 485 C 543 468 525 430 525 413 C 525 396 549 360 554 343 C 559 326 586 302 596 288 C 606 274 624 243 638 233 C 652 223 690 231 707 226 C 724 221 751 260 768 260 C 785 260 813 217 830 222 C 847 227 891 214 905 224 C 919 234 960 252 970 266 C 980 280 1002 318 1007 335 C 1012 352 984 396 984 413" fill="url(#lg-0.9348884476266788)" opacity="0.4">
  <animate attributeName="d" dur="10s" repeatCount="indefinite" keyTimes="0;0.3333333333333333;0.6666666666666666;1" calcmod="spline" keySplines="0.3 0.1 0.7 0.9;0.3 0.1 0.7 0.9;0.3 0.1 0.7 0.9" begin="-2s" values="M 984 413 C 984 430 984 465 979 482 C 974 499 950 524 940 538 C 930 552 912 582 898 592 C 884 602 846 595 829 600 C 812 605 785 567 768 567 C 751 567 734 574 717 569 C 700 564 666 583 652 573 C 638 563 613 547 603 533 C 593 519 553 502 548 485 C 543 468 525 430 525 413 C 525 396 549 360 554 343 C 559 326 586 302 596 288 C 606 274 624 243 638 233 C 652 223 690 231 707 226 C 724 221 751 260 768 260 C 785 260 813 217 830 222 C 847 227 891 214 905 224 C 919 234 960 252 970 266 C 980 280 1002 318 1007 335 C 1012 352 984 396 984 413;M 939 413 C 939 426 957 461 953 473 C 949 485 923 510 916 520 C 909 530 870 533 860 540 C 850 547 827 553 815 557 C 803 561 781 520 768 520 C 755 520 741 537 729 533 C 717 529 696 533 686 526 C 676 519 641 521 634 511 C 627 501 604 480 600 468 C 596 456 605 426 605 413 C 605 400 590 369 594 357 C 598 345 636 333 643 323 C 650 313 660 285 670 278 C 680 271 717 296 729 292 C 741 288 755 294 768 294 C 781 294 790 304 802 308 C 814 312 849 281 859 288 C 869 295 878 318 885 328 C 892 338 922 350 926 362 C 930 374 939 400 939 413;M 959 413 C 959 427 974 466 970 479 C 966 492 939 521 931 532 C 923 543 882 547 871 555 C 860 563 834 571 821 575 C 808 579 782 525 768 525 C 754 525 733 563 720 559 C 707 555 690 543 679 535 C 668 527 634 527 626 516 C 618 505 575 490 571 477 C 567 464 546 427 546 413 C 546 399 566 362 570 349 C 574 336 601 309 609 298 C 617 287 651 276 662 268 C 673 260 717 299 730 295 C 743 291 754 290 768 290 C 782 290 798 277 811 281 C 824 285 856 268 867 276 C 878 284 915 289 923 300 C 931 311 964 335 968 348 C 972 361 959 399 959 413;M 984 413 C 984 430 984 465 979 482 C 974 499 950 524 940 538 C 930 552 912 582 898 592 C 884 602 846 595 829 600 C 812 605 785 567 768 567 C 751 567 734 574 717 569 C 700 564 666 583 652 573 C 638 563 613 547 603 533 C 593 519 553 502 548 485 C 543 468 525 430 525 413 C 525 396 549 360 554 343 C 559 326 586 302 596 288 C 606 274 624 243 638 233 C 652 223 690 231 707 226 C 724 221 751 260 768 260 C 785 260 813 217 830 222 C 847 227 891 214 905 224 C 919 234 960 252 970 266 C 980 280 1002 318 1007 335 C 1012 352 984 396 984 413"></animate>
</path><path d="M 1016 413 C 1016 430 1015 475 1010 492 C 1005 509 958 530 948 544 C 938 558 905 572 891 582 C 877 592 851 611 834 616 C 817 621 785 589 768 589 C 751 589 732 583 715 578 C 698 573 645 612 631 602 C 617 592 591 563 581 549 C 571 535 515 514 510 497 C 505 480 535 430 535 413 C 535 396 516 350 521 333 C 526 316 555 280 565 266 C 575 252 623 242 637 232 C 651 222 700 262 717 257 C 734 252 751 236 768 236 C 785 236 808 232 825 237 C 842 242 864 251 878 261 C 892 271 962 251 972 265 C 982 279 983 324 988 341 C 993 358 1016 396 1016 413" fill="url(#lg-0.9348884476266788)" opacity="0.4">
  <animate attributeName="d" dur="10s" repeatCount="indefinite" keyTimes="0;0.3333333333333333;0.6666666666666666;1" calcmod="spline" keySplines="0.3 0.1 0.7 0.9;0.3 0.1 0.7 0.9;0.3 0.1 0.7 0.9" begin="-2s" values="M 1016 413 C 1016 430 1015 475 1010 492 C 1005 509 958 530 948 544 C 938 558 905 572 891 582 C 877 592 851 611 834 616 C 817 621 785 589 768 589 C 751 589 732 583 715 578 C 698 573 645 612 631 602 C 617 592 591 563 581 549 C 571 535 515 514 510 497 C 505 480 535 430 535 413 C 535 396 516 350 521 333 C 526 316 555 280 565 266 C 575 252 623 242 637 232 C 651 222 700 262 717 257 C 734 252 751 236 768 236 C 785 236 808 232 825 237 C 842 242 864 251 878 261 C 892 271 962 251 972 265 C 982 279 983 324 988 341 C 993 358 1016 396 1016 413;M 940 413 C 940 426 927 451 923 463 C 919 475 933 516 925 527 C 917 538 882 546 871 554 C 860 562 829 558 817 562 C 805 566 781 544 768 544 C 755 544 740 541 728 537 C 716 533 686 549 675 541 C 664 533 635 526 627 515 C 619 504 585 486 581 474 C 577 462 571 426 571 413 C 571 400 603 373 607 361 C 611 349 621 323 629 312 C 637 301 672 305 683 297 C 694 289 716 295 728 291 C 740 287 755 307 768 307 C 781 307 792 299 804 303 C 816 307 838 294 849 302 C 860 310 892 306 900 317 C 908 328 943 343 947 355 C 951 367 940 400 940 413;M 1010 413 C 1010 430 1000 471 995 487 C 990 503 940 516 930 530 C 920 544 887 548 873 558 C 859 568 844 593 828 598 C 812 603 785 571 768 571 C 751 571 724 602 708 597 C 692 592 671 576 657 566 C 643 556 594 561 584 547 C 574 533 532 507 527 491 C 522 475 515 430 515 413 C 515 396 543 357 548 341 C 553 325 588 304 598 290 C 608 276 648 278 662 268 C 676 258 704 270 720 265 C 736 260 751 237 768 237 C 785 237 798 267 814 272 C 830 277 861 255 875 265 C 889 275 942 266 952 280 C 962 294 970 330 975 346 C 980 362 1010 396 1010 413;M 1016 413 C 1016 430 1015 475 1010 492 C 1005 509 958 530 948 544 C 938 558 905 572 891 582 C 877 592 851 611 834 616 C 817 621 785 589 768 589 C 751 589 732 583 715 578 C 698 573 645 612 631 602 C 617 592 591 563 581 549 C 571 535 515 514 510 497 C 505 480 535 430 535 413 C 535 396 516 350 521 333 C 526 316 555 280 565 266 C 575 252 623 242 637 232 C 651 222 700 262 717 257 C 734 252 751 236 768 236 C 785 236 808 232 825 237 C 842 242 864 251 878 261 C 892 271 962 251 972 265 C 982 279 983 324 988 341 C 993 358 1016 396 1016 413"></animate>
</path></g>
</svg>