<?xml version="1.0" encoding="utf-8"?>
<svg xmlns="http://www.w3.org/2000/svg" xmlns:xlink="http://www.w3.org/1999/xlink" style="margin: auto; background: rgb(241, 242, 243); display: block; z-index: 1; position: relative; shape-rendering: auto;" width="1536" height="714" preserveAspectRatio="xMidYMid" viewBox="0 0 1536 714">
<g transform="translate(768,357) scale(1,1) translate(-768,-357)"><path id="path0" d="M 1408.338255134662 75.77459039749257
c 0 31.03340391626093 -7.593279681638312 8.913850061053672 -16.507129742691983 8.913850061053672
S 1375.3239956492778 106.80799431375351 1375.3239956492778 75.77459039749257
s 7.593279681638312 -8.913850061053672 16.507129742691983 -8.913850061053672
S 1408.338255134662 44.741186481231644 1408.338255134662 75.77459039749257
z" fill="none" stroke="none"></path>
<circle cx="0" cy="0" r="8.826997130560672" fill="#000000">
  <animateMotion begin="-1.0139356938889321s" dur="10s" repeatCount="indefinite">
    <mpath xlink:href="#path0"></mpath>
  </animateMotion>
</circle><path id="path1" d="M 548.104584558569 258.81961139383657
c 0 34.194899867822585 -8.36683720170127 9.821939323736274 -18.188776525437543 9.821939323736274
S 511.7270315076938 293.01451126165915 511.7270315076938 258.81961139383657
s 8.36683720170127 -9.821939323736274 18.188776525437543 -9.821939323736274
S 548.104584558569 224.62471152601398 548.104584558569 258.81961139383657
z" fill="none" stroke="none"></path>
<circle cx="0" cy="0" r="6.755005784538271" fill="#000000">
  <animateMotion begin="-6.593256756324117s" dur="10s" repeatCount="indefinite">
    <mpath xlink:href="#path1"></mpath>
  </animateMotion>
</circle><path id="path2" d="M 400.29368486902536 610.152715416152
c 0 27.227789146054654 -6.6621186208431595 7.820747946207188 -14.482866567050348 7.820747946207188
S 371.3279517349247 637.3805045622066 371.3279517349247 610.152715416152
s 6.6621186208431595 -7.820747946207188 14.482866567050348 -7.820747946207188
S 400.29368486902536 582.9249262700973 400.29368486902536 610.152715416152
z" fill="none" stroke="none"></path>
<circle cx="0" cy="0" r="9.96978536653785" fill="#1a8ce0">
  <animateMotion begin="-1.7870733867821276s" dur="10s" repeatCount="indefinite">
    <mpath xlink:href="#path2"></mpath>
  </animateMotion>
</circle><path id="path3" d="M 1212.6841467212068 552.0527640293226
c 0 23.463569015193542 -5.7410860356324624 6.739535780959848 -12.48062181659231 6.739535780959848
S 1187.7229030880223 575.5163330445162 1187.7229030880223 552.0527640293226
s 5.7410860356324624 -6.739535780959848 12.48062181659231 -6.739535780959848
S 1212.6841467212068 528.589195014129 1212.6841467212068 552.0527640293226
z" fill="none" stroke="none"></path>
<circle cx="0" cy="0" r="7.616500932720205" fill="#1a8ce0">
  <animateMotion begin="-1.8577209779043091s" dur="10s" repeatCount="indefinite">
    <mpath xlink:href="#path3"></mpath>
  </animateMotion>
</circle><path id="path4" d="M 1087.1787801844953 111.66783553843895
c 0 24.804259735226676 -6.069127382023548 7.124627796288514 -13.193755178312061 7.124627796288514
S 1060.791269827871 136.47209527366562 1060.791269827871 111.66783553843895
s 6.069127382023548 -7.124627796288514 13.193755178312061 -7.124627796288514
S 1087.1787801844953 86.86357580321227 1087.1787801844953 111.66783553843895
z" fill="none" stroke="none"></path>
<circle cx="0" cy="0" r="8.476922998648265" fill="#1a8ce0">
  <animateMotion begin="-0.006887420778280973s" dur="10s" repeatCount="indefinite">
    <mpath xlink:href="#path4"></mpath>
  </animateMotion>
</circle><path id="path5" d="M 399.54620344496175 92.29586874777563
c 0 20.03222183392931 -4.901501087025256 5.7539360586818225 -10.65543714570708 5.7539360586818225
S 378.2353291535476 112.32809058170494 378.2353291535476 92.29586874777563
s 4.901501087025256 -5.7539360586818225 10.65543714570708 -5.7539360586818225
S 399.54620344496175 72.26364691384632 399.54620344496175 92.29586874777563
z" fill="none" stroke="none"></path>
<circle cx="0" cy="0" r="9.132895320600577" fill="#000000">
  <animateMotion begin="-3.237607537128311s" dur="10s" repeatCount="indefinite">
    <mpath xlink:href="#path5"></mpath>
  </animateMotion>
</circle><path id="path6" d="M 1460.5484361661786 373.2954681655951
c 0 25.06217058979194 -6.132233229417176 7.198708573663642 -13.330941803080819 7.198708573663642
S 1433.886552560017 398.35763875538703 1433.886552560017 373.2954681655951
s 6.132233229417176 -7.198708573663642 13.330941803080819 -7.198708573663642
S 1460.5484361661786 348.23329757580314 1460.5484361661786 373.2954681655951
z" fill="none" stroke="none"></path>
<circle cx="0" cy="0" r="10.77507888998928" fill="#1a8ce0">
  <animateMotion begin="-7.3717031273027755s" dur="10s" repeatCount="indefinite">
    <mpath xlink:href="#path6"></mpath>
  </animateMotion>
</circle><path id="path7" d="M 1327.4186360272595 33.734500253400284
c 0 20.952686916271546 -5.126721266747293 6.01832496531204 -11.145046232059332 6.01832496531204
S 1305.128543563141 54.68718716967183 1305.128543563141 33.734500253400284
s 5.126721266747293 -6.01832496531204 11.145046232059332 -6.01832496531204
S 1327.4186360272595 12.781813337128739 1327.4186360272595 33.734500253400284
z" fill="none" stroke="none"></path>
<circle cx="0" cy="0" r="10.441932001913386" fill="#000000">
  <animateMotion begin="-8.71277814362491s" dur="10s" repeatCount="indefinite">
    <mpath xlink:href="#path7"></mpath>
  </animateMotion>
</circle><path id="path8" d="M 263.4148188219841 249.28395263753816
c 0 33.306424913847216 -8.14944439381368 9.566739070998668 -17.716183464812346 9.566739070998668
S 227.98245189235945 282.59037755138536 227.98245189235945 249.28395263753816
s 8.14944439381368 -9.566739070998668 17.716183464812346 -9.566739070998668
S 263.4148188219841 215.97752772369094 263.4148188219841 249.28395263753816
z" fill="none" stroke="none"></path>
<circle cx="0" cy="0" r="8.172359341042913" fill="#000000">
  <animateMotion begin="-9.17152357608526s" dur="10s" repeatCount="indefinite">
    <mpath xlink:href="#path8"></mpath>
  </animateMotion>
</circle><path id="path9" d="M 1046.0608999681479 628.3500630566482
c 0 27.34330779193114 -6.690383821429959 7.853928833852562 -14.544312655282521 7.853928833852562
S 1016.9722746575828 655.6933708485793 1016.9722746575828 628.3500630566482
s 6.690383821429959 -7.853928833852562 14.544312655282521 -7.853928833852562
S 1046.0608999681479 601.0067552647171 1046.0608999681479 628.3500630566482
z" fill="none" stroke="none"></path>
<circle cx="0" cy="0" r="8.918645293041234" fill="#1a8ce0">
  <animateMotion begin="-6.131186277244751s" dur="10s" repeatCount="indefinite">
    <mpath xlink:href="#path9"></mpath>
  </animateMotion>
</circle><path id="path10" d="M 508.2482414400196 153.65702381821367
c 0 36.68869761379378 -8.977021756566561 10.538242931621618 -19.51526468818818 10.538242931621618
S 469.2177120636433 190.34572143200745 469.2177120636433 153.65702381821367
s 8.977021756566561 -10.538242931621618 19.51526468818818 -10.538242931621618
S 508.2482414400196 116.9683262044199 508.2482414400196 153.65702381821367
z" fill="none" stroke="none"></path>
<circle cx="0" cy="0" r="7.625445398470312" fill="#1a8ce0">
  <animateMotion begin="-2.1282390646013427s" dur="10s" repeatCount="indefinite">
    <mpath xlink:href="#path10"></mpath>
  </animateMotion>
</circle><path id="path11" d="M 908.3859393439918 533.4398979695601
c 0 31.55675324861162 -7.721333241681566 9.064173805452274 -16.78550704713384 9.064173805452274
S 874.8149252497242 564.9966512181717 874.8149252497242 533.4398979695601
s 7.721333241681566 -9.064173805452274 16.78550704713384 -9.064173805452274
S 908.3859393439918 501.88314472094845 908.3859393439918 533.4398979695601
z" fill="none" stroke="none"></path>
<circle cx="0" cy="0" r="11.17531462888931" fill="#1a8ce0">
  <animateMotion begin="-2.0233910083531925s" dur="10s" repeatCount="indefinite">
    <mpath xlink:href="#path11"></mpath>
  </animateMotion>
</circle><path id="path12" d="M 1365.5334883409757 50.5210109304859
c 0 34.36007180511987 -8.40725161189103 9.869382327002516 -18.276633938893546 9.869382327002516
S 1328.9802204631885 84.88108273560577 1328.9802204631885 50.5210109304859
s 8.40725161189103 -9.869382327002516 18.276633938893546 -9.869382327002516
S 1365.5334883409757 16.160939125366028 1365.5334883409757 50.5210109304859
z" fill="none" stroke="none"></path>
<circle cx="0" cy="0" r="11.006535937586325" fill="#000000">
  <animateMotion begin="-8.915035777424754s" dur="10s" repeatCount="indefinite">
    <mpath xlink:href="#path12"></mpath>
  </animateMotion>
</circle><path id="path13" d="M 1075.4021896989034 504.97715016167626
c 0 30.643906733990374 -7.497977179593388 8.801973210827022 -16.29995039042041 8.801973210827022
S 1042.8022889180625 535.6210568956666 1042.8022889180625 504.97715016167626
s 7.497977179593388 -8.801973210827022 16.29995039042041 -8.801973210827022
S 1075.4021896989034 474.3332434276859 1075.4021896989034 504.97715016167626
z" fill="none" stroke="none"></path>
<circle cx="0" cy="0" r="6.221520117878994" fill="#1a8ce0">
  <animateMotion begin="-6.926300173048574s" dur="10s" repeatCount="indefinite">
    <mpath xlink:href="#path13"></mpath>
  </animateMotion>
</circle><path id="path14" d="M 1501.8562502265472 532.92390212888
c 0 36.8454544842865 -9.015377161048823 10.583268841231229 -19.598646002280052 10.583268841231229
S 1462.6589582219872 569.7693566131665 1462.6589582219872 532.92390212888
s 9.015377161048823 -10.583268841231229 19.598646002280052 -10.583268841231229
S 1501.8562502265472 496.07844764459344 1501.8562502265472 532.92390212888
z" fill="none" stroke="none"></path>
<circle cx="0" cy="0" r="8.68800987466497" fill="#1a8ce0">
  <animateMotion begin="-0.49797917014846815s" dur="10s" repeatCount="indefinite">
    <mpath xlink:href="#path14"></mpath>
  </animateMotion>
</circle><path id="path15" d="M 536.9030083011612 123.3322652107289
c 0 32.68641073658811 -7.99773879725028 9.388649892424244 -17.386388689674522 9.388649892424244
S 502.1302309218122 156.018675947317 502.1302309218122 123.3322652107289
s 7.99773879725028 -9.388649892424244 17.386388689674522 -9.388649892424244
S 536.9030083011612 90.6458544741408 536.9030083011612 123.3322652107289
z" fill="none" stroke="none"></path>
<circle cx="0" cy="0" r="10.246881553961849" fill="#1a8ce0">
  <animateMotion begin="-1.4659349352444084s" dur="10s" repeatCount="indefinite">
    <mpath xlink:href="#path15"></mpath>
  </animateMotion>
</circle><path id="path16" d="M 1027.6433307126129 111.57696881557348
c 0 33.095292603271325 -8.097784360374897 9.50609468391836 -17.603879044293254 9.50609468391836
S 992.4355726240263 144.6722614188448 992.4355726240263 111.57696881557348
s 8.097784360374897 -9.50609468391836 17.603879044293254 -9.50609468391836
S 1027.6433307126129 78.48167621230215 1027.6433307126129 111.57696881557348
z" fill="none" stroke="none"></path>
<circle cx="0" cy="0" r="7.560423399083777" fill="#000000">
  <animateMotion begin="-3.4300182453252037s" dur="10s" repeatCount="indefinite">
    <mpath xlink:href="#path16"></mpath>
  </animateMotion>
</circle><path id="path17" d="M 605.9483495096805 252.34433609826704
c 0 33.98941883401302 -8.31655992747127 9.762918175727144 -18.079478103198415 9.762918175727144
S 569.7893933032836 286.33375493228004 569.7893933032836 252.34433609826704
s 8.31655992747127 -9.762918175727144 18.079478103198415 -9.762918175727144
S 605.9483495096805 218.35491726425403 605.9483495096805 252.34433609826704
z" fill="none" stroke="none"></path>
<circle cx="0" cy="0" r="8.310040434231652" fill="#000000">
  <animateMotion begin="-4.862860759284451s" dur="10s" repeatCount="indefinite">
    <mpath xlink:href="#path17"></mpath>
  </animateMotion>
</circle><path id="path18" d="M 329.33239589695387 620.1027270365174
c 0 37.20825216376517 -9.104146806027646 10.687476685336803 -19.79162349136445 10.687476685336803
S 289.7491489142249 657.3109792002826 289.7491489142249 620.1027270365174
s 9.104146806027646 -10.687476685336803 19.79162349136445 -10.687476685336803
S 329.33239589695387 582.8944748727522 329.33239589695387 620.1027270365174
z" fill="none" stroke="none"></path>
<circle cx="0" cy="0" r="6.933603427867394" fill="#000000">
  <animateMotion begin="-1.0781261758335314s" dur="10s" repeatCount="indefinite">
    <mpath xlink:href="#path18"></mpath>
  </animateMotion>
</circle><path id="path19" d="M 1047.0900462355369 364.99179676991525
c 0 34.04664779799953 -8.33056275908499 9.779356282404121 -18.109919041489114 9.779356282404121
S 1010.8702081525587 399.0384445679148 1010.8702081525587 364.99179676991525
s 8.33056275908499 -9.779356282404121 18.109919041489114 -9.779356282404121
S 1047.0900462355369 330.9451489719157 1047.0900462355369 364.99179676991525
z" fill="none" stroke="none"></path>
<circle cx="0" cy="0" r="9.0607911178841" fill="#1a8ce0">
  <animateMotion begin="-9.195513453215804s" dur="10s" repeatCount="indefinite">
    <mpath xlink:href="#path19"></mpath>
  </animateMotion>
</circle><path id="path20" d="M 1057.161506295988 649.2400174846941
c 0 34.03105430348843 -8.326747329576955 9.774877299938167 -18.101624629515122 9.774877299938167
S 1020.9582570369578 683.2710717881826 1020.9582570369578 649.2400174846941
s 8.326747329576955 -9.774877299938167 18.101624629515122 -9.774877299938167
S 1057.161506295988 615.2089631812057 1057.161506295988 649.2400174846941
z" fill="none" stroke="none"></path>
<circle cx="0" cy="0" r="9.396974359630757" fill="#1a8ce0">
  <animateMotion begin="-7.650410560761458s" dur="10s" repeatCount="indefinite">
    <mpath xlink:href="#path20"></mpath>
  </animateMotion>
</circle><path id="path21" d="M 1485.058277669978 380.38746725698184
c 0 37.562795323774296 -9.19089672815754 10.78931355044581 -19.98021027860335 10.78931355044581
S 1445.0978571127712 417.95026258075615 1445.0978571127712 380.38746725698184
s 9.19089672815754 -10.78931355044581 19.98021027860335 -10.78931355044581
S 1485.058277669978 342.8246719332075 1485.058277669978 380.38746725698184
z" fill="none" stroke="none"></path>
<circle cx="0" cy="0" r="9.097716113762383" fill="#1a8ce0">
  <animateMotion begin="-5.0302064316484385s" dur="10s" repeatCount="indefinite">
    <mpath xlink:href="#path21"></mpath>
  </animateMotion>
</circle><path id="path22" d="M 753.6598517149891 327.6126055001728
c 0 22.533143374943705 -5.513428698124523 6.472285863015745 -11.985714561140268 6.472285863015745
S 729.6884225927085 350.1457488751165 729.6884225927085 327.6126055001728
s 5.513428698124523 -6.472285863015745 11.985714561140268 -6.472285863015745
S 753.6598517149891 305.07946212522904 753.6598517149891 327.6126055001728
z" fill="none" stroke="none"></path>
<circle cx="0" cy="0" r="7.620204116091841" fill="#1a8ce0">
  <animateMotion begin="-4.748061258117864s" dur="10s" repeatCount="indefinite">
    <mpath xlink:href="#path22"></mpath>
  </animateMotion>
</circle><path id="path23" d="M 469.567067011865 233.57365413719756
c 0 35.00142163119212 -8.564177633164029 10.053599830236035 -18.617777463400063 10.053599830236035
S 432.3315120850649 268.5750757683897 432.3315120850649 233.57365413719756
s 8.564177633164029 -10.053599830236035 18.617777463400063 -10.053599830236035
S 469.567067011865 198.57223250600543 469.567067011865 233.57365413719756
z" fill="none" stroke="none"></path>
<circle cx="0" cy="0" r="6.277137977559803" fill="#000000">
  <animateMotion begin="-5.547079547761189s" dur="10s" repeatCount="indefinite">
    <mpath xlink:href="#path23"></mpath>
  </animateMotion>
</circle><path id="path24" d="M 730.3736294682982 267.3556826742201
c 0 25.84347709482323 -6.323403970009938 7.423126399576884 -13.746530369586822 7.423126399576884
S 702.8805687291245 293.1991597690433 702.8805687291245 267.3556826742201
s 6.323403970009938 -7.423126399576884 13.746530369586822 -7.423126399576884
S 730.3736294682982 241.51220557939683 730.3736294682982 267.3556826742201
z" fill="none" stroke="none"></path>
<circle cx="0" cy="0" r="5.910036394952217" fill="#000000">
  <animateMotion begin="-9.09848064601665s" dur="10s" repeatCount="indefinite">
    <mpath xlink:href="#path24"></mpath>
  </animateMotion>
</circle><path id="path25" d="M 162.6845154057904 279.65825480021806
c 0 34.05099259034263 -8.331625846573196 9.780604254672884 -18.11223010124608 9.780604254672884
S 126.46005520329824 313.7092473905607 126.46005520329824 279.65825480021806
s 8.331625846573196 -9.780604254672884 18.11223010124608 -9.780604254672884
S 162.6845154057904 245.60726220987544 162.6845154057904 279.65825480021806
z" fill="none" stroke="none"></path>
<circle cx="0" cy="0" r="6.995269802738149" fill="#1a8ce0">
  <animateMotion begin="-4.3531192647864785s" dur="10s" repeatCount="indefinite">
    <mpath xlink:href="#path25"></mpath>
  </animateMotion>
</circle><path id="path26" d="M 700.750447425315 581.7457934054378
c 0 36.15553569321525 -8.846567244084582 10.385100677838423 -19.231667921923005 10.385100677838423
S 662.287111581469 617.901329098653 662.287111581469 581.7457934054378
s 8.846567244084582 -10.385100677838423 19.231667921923005 -10.385100677838423
S 700.750447425315 545.5902577122225 700.750447425315 581.7457934054378
z" fill="none" stroke="none"></path>
<circle cx="0" cy="0" r="11.028193719349431" fill="#1a8ce0">
  <animateMotion begin="-6.0985377353976356s" dur="10s" repeatCount="indefinite">
    <mpath xlink:href="#path26"></mpath>
  </animateMotion>
</circle><path id="path27" d="M 1357.477376088632 560.5077785123425
c 0 23.51383425199422 -5.753384976551776 6.753973668125999 -12.507358644677776 6.753973668125999
S 1332.4626587992761 584.0216127643367 1332.4626587992761 560.5077785123425
s 5.753384976551776 -6.753973668125999 12.507358644677776 -6.753973668125999
S 1357.477376088632 536.9939442603483 1357.477376088632 560.5077785123425
z" fill="none" stroke="none"></path>
<circle cx="0" cy="0" r="7.102681969608829" fill="#1a8ce0">
  <animateMotion begin="-8.967127571583998s" dur="10s" repeatCount="indefinite">
    <mpath xlink:href="#path27"></mpath>
  </animateMotion>
</circle><path id="path28" d="M 848.8027384686318 121.88280420158091
c 0 35.46030062564413 -8.676456536061862 10.18540549885523 -18.861862034917092 10.18540549885523
S 811.0790143987977 157.34310482722503 811.0790143987977 121.88280420158091
s 8.676456536061862 -10.18540549885523 18.861862034917092 -10.18540549885523
S 848.8027384686318 86.42250357593679 848.8027384686318 121.88280420158091
z" fill="none" stroke="none"></path>
<circle cx="0" cy="0" r="8.738952176006752" fill="#000000">
  <animateMotion begin="-9.285437233372683s" dur="10s" repeatCount="indefinite">
    <mpath xlink:href="#path28"></mpath>
  </animateMotion>
</circle><path id="path29" d="M 126.34110193848247 373.3067063694293
c 0 31.412312804519196 -7.685991430892994 9.022685592787429 -16.708677023680423 9.022685592787429
S 92.92374789112162 404.71901917394854 92.92374789112162 373.3067063694293
s 7.685991430892994 -9.022685592787429 16.708677023680423 -9.022685592787429
S 126.34110193848247 341.8943935649101 126.34110193848247 373.3067063694293
z" fill="none" stroke="none"></path>
<circle cx="0" cy="0" r="8.812108756748037" fill="#000000">
  <animateMotion begin="-4.790495557891723s" dur="10s" repeatCount="indefinite">
    <mpath xlink:href="#path29"></mpath>
  </animateMotion>
</circle></g>
</svg>