<?xml version="1.0" encoding="utf-8"?>
<svg xmlns="http://www.w3.org/2000/svg" xmlns:xlink="http://www.w3.org/1999/xlink" style="margin: auto; background: none; display: block; z-index: 1; position: relative; shape-rendering: auto;" width="1536" height="714" preserveAspectRatio="xMidYMid" viewBox="0 0 1536 714">
<g transform="translate(768,357) scale(1,1) translate(-768,-357)"><path id="path0" d="M 1518.5654961019072 428.24789377881217
c 0 26.465148277365188 -6.475515004036162 7.601691526477235 -14.077206530513397 7.601691526477235
S 1490.4110830408804 454.71304205617736 1490.4110830408804 428.24789377881217
s 6.475515004036162 -7.601691526477235 14.077206530513397 -7.601691526477235
S 1518.5654961019072 401.782745501447 1518.5654961019072 428.24789377881217
z" fill="none" stroke="none"></path>
<circle cx="0" cy="0" r="6.427791083444803" fill="#f994d9">
  <animateMotion begin="-5.494640978916867s" dur="10s" repeatCount="indefinite">
    <mpath xlink:href="#path0"></mpath>
  </animateMotion>
</circle><path id="path1" d="M 1302.2371705432365 217.07998658059762
c 0 35.7227575807739 -8.740674727210635 10.260792071073356 -19.00146679828399 10.260792071073356
S 1264.2342369466687 252.80274416137152 1264.2342369466687 217.07998658059762
s 8.740674727210635 -10.260792071073356 19.00146679828399 -10.260792071073356
S 1302.2371705432365 181.35722899982372 1302.2371705432365 217.07998658059762
z" fill="none" stroke="none"></path>
<circle cx="0" cy="0" r="3.7742244764931945" fill="#ec5f5f">
  <animateMotion begin="-4.704826937265672s" dur="10s" repeatCount="indefinite">
    <mpath xlink:href="#path1"></mpath>
  </animateMotion>
</circle><path id="path2" d="M 980.4702023686029 528.9803102559866
c 0 27.675142241114884 -6.7715773568685345 7.94924298415002 -14.720820341018555 7.94924298415002
S 951.0285616865658 556.6554524971016 951.0285616865658 528.9803102559866
s 6.7715773568685345 -7.94924298415002 14.720820341018555 -7.94924298415002
S 980.4702023686029 501.30516801487175 980.4702023686029 528.9803102559866
z" fill="none" stroke="none"></path>
<circle cx="0" cy="0" r="5.9534731737692566" fill="#ec5f5f">
  <animateMotion begin="-4.9148421097850985s" dur="10s" repeatCount="indefinite">
    <mpath xlink:href="#path2"></mpath>
  </animateMotion>
</circle><path id="path3" d="M 1255.6969386466692 546.026764443883
c 0 29.424711798112302 -7.19966352507003 8.451778920734386 -15.651442445804415 8.451778920734386
S 1224.3940537550604 575.4514762419954 1224.3940537550604 546.026764443883
s 7.19966352507003 -8.451778920734386 15.651442445804415 -8.451778920734386
S 1255.6969386466692 516.6020526457708 1255.6969386466692 546.026764443883
z" fill="none" stroke="none"></path>
<circle cx="0" cy="0" r="5.505234987277171" fill="#559cd7">
  <animateMotion begin="-8.31815227448054s" dur="10s" repeatCount="indefinite">
    <mpath xlink:href="#path3"></mpath>
  </animateMotion>
</circle><path id="path4" d="M 392.55514998344563 179.3336344013498
c 0 25.63972238880331 -6.273549095132724 7.364601111677547 -13.638150206810272 7.364601111677547
S 365.27884956982507 204.9733567901531 365.27884956982507 179.3336344013498
s 6.273549095132724 -7.364601111677547 13.638150206810272 -7.364601111677547
S 392.55514998344563 153.6939120125465 392.55514998344563 179.3336344013498
z" fill="none" stroke="none"></path>
<circle cx="0" cy="0" r="6.397969733993262" fill="#559cd7">
  <animateMotion begin="-4.488797724781037s" dur="10s" repeatCount="indefinite">
    <mpath xlink:href="#path4"></mpath>
  </animateMotion>
</circle><path id="path5" d="M 405.5397968369782 656.4108947833367
c 0 27.241063684929014 -6.665366646312417 7.824560845671099 -14.489927491983517 7.824560845671099
S 376.5599418530112 683.6519584682658 376.5599418530112 656.4108947833367
s 6.665366646312417 -7.824560845671099 14.489927491983517 -7.824560845671099
S 405.5397968369782 629.1698310984077 405.5397968369782 656.4108947833367
z" fill="none" stroke="none"></path>
<circle cx="0" cy="0" r="5.694314179233889" fill="#f994d9">
  <animateMotion begin="-9.707349935222505s" dur="10s" repeatCount="indefinite">
    <mpath xlink:href="#path5"></mpath>
  </animateMotion>
</circle><path id="path6" d="M 148.37284313891928 209.94331298929382
c 0 26.24510898919498 -6.421675603739197 7.53848875221558 -13.960164355954776 7.53848875221558
S 120.45251442700972 236.1884219784888 120.45251442700972 209.94331298929382
s 6.421675603739197 -7.53848875221558 13.960164355954776 -7.53848875221558
S 148.37284313891928 183.69820400009883 148.37284313891928 209.94331298929382
z" fill="none" stroke="none"></path>
<circle cx="0" cy="0" r="3.8274867817996823" fill="#f994d9">
  <animateMotion begin="-3.005319924627794s" dur="10s" repeatCount="indefinite">
    <mpath xlink:href="#path6"></mpath>
  </animateMotion>
</circle><path id="path7" d="M 59.43580958051274 177.2676109627812
c 0 21.77178887727242 -5.327139831673039 6.253598932833568 -11.580738764506606 6.253598932833568
S 36.27433205149953 199.03939984005362 36.27433205149953 177.2676109627812
s 5.327139831673039 -6.253598932833568 11.580738764506606 -6.253598932833568
S 59.43580958051274 155.49582208550876 59.43580958051274 177.2676109627812
z" fill="none" stroke="none"></path>
<circle cx="0" cy="0" r="6.459114134682148" fill="#559cd7">
  <animateMotion begin="-1.6457236676550324s" dur="10s" repeatCount="indefinite">
    <mpath xlink:href="#path7"></mpath>
  </animateMotion>
</circle><path id="path8" d="M 1116.3407134989473 150.8618635786456
c 0 29.90724762239943 -7.317730801225392 8.590379636221114 -15.908110437446506 8.590379636221114
S 1084.5244926240541 180.76911120104504 1084.5244926240541 150.8618635786456
s 7.317730801225392 -8.590379636221114 15.908110437446506 -8.590379636221114
S 1116.3407134989473 120.95461595624616 1116.3407134989473 150.8618635786456
z" fill="none" stroke="none"></path>
<circle cx="0" cy="0" r="4.525161201720181" fill="#f994d9">
  <animateMotion begin="-7.709544039146148s" dur="10s" repeatCount="indefinite">
    <mpath xlink:href="#path8"></mpath>
  </animateMotion>
</circle><path id="path9" d="M 980.5568110125519 57.8482373386113
c 0 25.56264674845533 -6.25469016185609 7.3424623639180195 -13.59715252577411 7.3424623639180195
S 953.3625059610035 83.41088408706662 953.3625059610035 57.8482373386113
s 6.25469016185609 -7.3424623639180195 13.59715252577411 -7.3424623639180195
S 980.5568110125519 32.28559059015597 980.5568110125519 57.8482373386113
z" fill="none" stroke="none"></path>
<circle cx="0" cy="0" r="4.30585833144221" fill="#f994d9">
  <animateMotion begin="-9.917203559735592s" dur="10s" repeatCount="indefinite">
    <mpath xlink:href="#path9"></mpath>
  </animateMotion>
</circle><path id="path10" d="M 513.1738010484715 211.30415361025632
c 0 22.888332985298426 -5.6003367942751465 6.574308410670825 -12.174645204945971 6.574308410670825
S 488.82451063857957 234.19248659555475 488.82451063857957 211.30415361025632
s 5.6003367942751465 -6.574308410670825 12.174645204945971 -6.574308410670825
S 513.1738010484715 188.4158206249579 513.1738010484715 211.30415361025632
z" fill="none" stroke="none"></path>
<circle cx="0" cy="0" r="6.220682268504291" fill="#f994d9">
  <animateMotion begin="-9.914191575633586s" dur="10s" repeatCount="indefinite">
    <mpath xlink:href="#path10"></mpath>
  </animateMotion>
</circle><path id="path11" d="M 1092.8978179526118 428.61845041019603
c 0 20.526044534051582 -5.022330045565812 5.895778749142476 -10.918108794708289 5.895778749142476
S 1071.061600363195 449.14449494424764 1071.061600363195 428.61845041019603
s 5.022330045565812 -5.895778749142476 10.918108794708289 -5.895778749142476
S 1092.8978179526118 408.0924058761444 1092.8978179526118 428.61845041019603
z" fill="none" stroke="none"></path>
<circle cx="0" cy="0" r="6.0218444008194725" fill="#559cd7">
  <animateMotion begin="-8.4472322027416s" dur="10s" repeatCount="indefinite">
    <mpath xlink:href="#path11"></mpath>
  </animateMotion>
</circle><path id="path12" d="M 1112.9840549239318 368.13070454275066
c 0 33.42709379472917 -8.178969758284795 9.601399281464762 -17.78036903974956 9.601399281464762
S 1077.4233168444327 401.5577983374798 1077.4233168444327 368.13070454275066
s 8.178969758284795 -9.601399281464762 17.78036903974956 -9.601399281464762
S 1112.9840549239318 334.7036107480215 1112.9840549239318 368.13070454275066
z" fill="none" stroke="none"></path>
<circle cx="0" cy="0" r="5.527563806309538" fill="#f994d9">
  <animateMotion begin="-9.950017688536967s" dur="10s" repeatCount="indefinite">
    <mpath xlink:href="#path12"></mpath>
  </animateMotion>
</circle><path id="path13" d="M 21.91803575857879 401.71545555104467
c 0 28.491718846220834 -6.971378015564672 8.183791583488963 -15.155169599053636 8.183791583488963
S -8.392303439528483 430.2071743972655 -8.392303439528483 401.71545555104467
s 6.971378015564672 -8.183791583488963 15.155169599053636 -8.183791583488963
S 21.91803575857879 373.22373670482386 21.91803575857879 401.71545555104467
z" fill="none" stroke="none"></path>
<circle cx="0" cy="0" r="4.775104657953237" fill="#559cd7">
  <animateMotion begin="-5.972709695564522s" dur="10s" repeatCount="indefinite">
    <mpath xlink:href="#path13"></mpath>
  </animateMotion>
</circle><path id="path14" d="M 582.8242484238025 540.2198500971343
c 0 26.52596477989645 -6.490395637634237 7.619160096353236 -14.109555733987474 7.619160096353236
S 554.6051369558276 566.7458148770307 554.6051369558276 540.2198500971343
s 6.490395637634237 -7.619160096353236 14.109555733987474 -7.619160096353236
S 582.8242484238025 513.6938853172379 582.8242484238025 540.2198500971343
z" fill="none" stroke="none"></path>
<circle cx="0" cy="0" r="3.821420795277878" fill="#559cd7">
  <animateMotion begin="-6.960867861261915s" dur="10s" repeatCount="indefinite">
    <mpath xlink:href="#path14"></mpath>
  </animateMotion>
</circle><path id="path15" d="M 618.1373194737512 475.7625574465418
c 0 20.880662259881987 -5.109098212524316 5.997637032093762 -11.106735244618077 5.997637032093762
S 595.923848984515 496.6432197064238 595.923848984515 475.7625574465418
s 5.109098212524316 -5.997637032093762 11.106735244618077 -5.997637032093762
S 618.1373194737512 454.8818951866598 618.1373194737512 475.7625574465418
z" fill="none" stroke="none"></path>
<circle cx="0" cy="0" r="3.93729794139619" fill="#559cd7">
  <animateMotion begin="-0.6379614692273394s" dur="10s" repeatCount="indefinite">
    <mpath xlink:href="#path15"></mpath>
  </animateMotion>
</circle><path id="path16" d="M 796.7283748033518 242.21105629881436
c 0 22.741245165006895 -5.56434722122509 6.532059781438151 -12.096407002663241 6.532059781438151
S 772.5355607980254 264.95230146382124 772.5355607980254 242.21105629881436
s 5.56434722122509 -6.532059781438151 12.096407002663241 -6.532059781438151
S 796.7283748033518 219.46981113380747 796.7283748033518 242.21105629881436
z" fill="none" stroke="none"></path>
<circle cx="0" cy="0" r="5.57713875315732" fill="#559cd7">
  <animateMotion begin="-4.900973632704339s" dur="10s" repeatCount="indefinite">
    <mpath xlink:href="#path16"></mpath>
  </animateMotion>
</circle><path id="path17" d="M 1054.3938453955805 657.7010455348955
c 0 23.887568130372625 -5.84483049998479 6.861322760851711 -12.706153260836501 6.861322760851711
S 1028.9815388739073 681.5886136652681 1028.9815388739073 657.7010455348955
s 5.84483049998479 -6.861322760851711 12.706153260836501 -6.861322760851711
S 1054.3938453955805 633.8134774045228 1054.3938453955805 657.7010455348955
z" fill="none" stroke="none"></path>
<circle cx="0" cy="0" r="6.2636692176751" fill="#f994d9">
  <animateMotion begin="-8.69799926373464s" dur="10s" repeatCount="indefinite">
    <mpath xlink:href="#path17"></mpath>
  </animateMotion>
</circle><path id="path18" d="M 943.982256331909 107.56252084041704
c 0 33.31074472728076 -8.150501369441036 9.56797986847426 -17.7184812379153 9.56797986847426
S 908.5452938560784 140.87326556769779 908.5452938560784 107.56252084041704
s 8.150501369441036 -9.56797986847426 17.7184812379153 -9.56797986847426
S 943.982256331909 74.25177611313627 943.982256331909 107.56252084041704
z" fill="none" stroke="none"></path>
<circle cx="0" cy="0" r="4.826643386803244" fill="#f994d9">
  <animateMotion begin="-0.8380289872023949s" dur="10s" repeatCount="indefinite">
    <mpath xlink:href="#path18"></mpath>
  </animateMotion>
</circle><path id="path19" d="M 1318.4547791585942 526.8740930358512
c 0 28.132944449402988 -6.8835927908113685 8.08073936312639 -14.964332153937757 8.08073936312639
S 1288.5261148507188 555.0070374852542 1288.5261148507188 526.8740930358512
s 6.8835927908113685 -8.08073936312639 14.964332153937757 -8.08073936312639
S 1318.4547791585942 498.74114858644816 1318.4547791585942 526.8740930358512
z" fill="none" stroke="none"></path>
<circle cx="0" cy="0" r="4.708332276697414" fill="#f994d9">
  <animateMotion begin="-7.446747845225539s" dur="10s" repeatCount="indefinite">
    <mpath xlink:href="#path19"></mpath>
  </animateMotion>
</circle><path id="path20" d="M 1246.320784369037 69.21315998286249
c 0 20.97603629891196 -5.132434413563564 6.025031702878968 -11.157466116442532 6.025031702878968
S 1224.005852136152 90.18919628177446 1224.005852136152 69.21315998286249
s 5.132434413563564 -6.025031702878968 11.157466116442532 -6.025031702878968
S 1246.320784369037 48.23712368395053 1246.320784369037 69.21315998286249
z" fill="none" stroke="none"></path>
<circle cx="0" cy="0" r="4.386030657264648" fill="#ec5f5f">
  <animateMotion begin="-6.542667740594423s" dur="10s" repeatCount="indefinite">
    <mpath xlink:href="#path20"></mpath>
  </animateMotion>
</circle><path id="path21" d="M 79.3238356545197 41.71931120560812
c 0 33.24875886955776 -8.135334617019451 9.550175419979357 -17.685510036998807 9.550175419979357
S 43.952815580522085 74.96807007516588 43.952815580522085 41.71931120560812
s 8.135334617019451 -9.550175419979357 17.685510036998807 -9.550175419979357
S 79.3238356545197 8.47055233605036 79.3238356545197 41.71931120560812
z" fill="none" stroke="none"></path>
<circle cx="0" cy="0" r="3.877267067687031" fill="#559cd7">
  <animateMotion begin="-3.8395338054704142s" dur="10s" repeatCount="indefinite">
    <mpath xlink:href="#path21"></mpath>
  </animateMotion>
</circle><path id="path22" d="M 1235.0229931410136 294.4849798357833
c 0 21.559176844924636 -5.275117738651772 6.192529519286864 -11.467647257938635 6.192529519286864
S 1212.0876986251365 316.04415668070794 1212.0876986251365 294.4849798357833
s 5.275117738651772 -6.192529519286864 11.467647257938635 -6.192529519286864
S 1235.0229931410136 272.92580299085864 1235.0229931410136 294.4849798357833
z" fill="none" stroke="none"></path>
<circle cx="0" cy="0" r="6.33664956476834" fill="#ec5f5f">
  <animateMotion begin="-7.640159606059552s" dur="10s" repeatCount="indefinite">
    <mpath xlink:href="#path22"></mpath>
  </animateMotion>
</circle><path id="path23" d="M 791.8532613078712 560.9803426933798
c 0 23.208738189622963 -5.6787338123545545 6.666339692764043 -12.345073505118599 6.666339692764043
S 767.1631142976339 584.1890808830028 767.1631142976339 560.9803426933798
s 5.6787338123545545 -6.666339692764043 12.345073505118599 -6.666339692764043
S 791.8532613078712 537.7716045037569 791.8532613078712 560.9803426933798
z" fill="none" stroke="none"></path>
<circle cx="0" cy="0" r="5.172294394042396" fill="#ec5f5f">
  <animateMotion begin="-3.0531978883855992s" dur="10s" repeatCount="indefinite">
    <mpath xlink:href="#path23"></mpath>
  </animateMotion>
</circle><path id="path24" d="M 1305.9080474058287 453.78173080363223
c 0 23.783289637439616 -5.819315549586288 6.83137042777521 -12.650685977361498 6.83137042777521
S 1280.6066754511057 477.56502044107185 1280.6066754511057 453.78173080363223
s 5.819315549586288 -6.83137042777521 12.650685977361498 -6.83137042777521
S 1305.9080474058287 429.9984411661926 1305.9080474058287 453.78173080363223
z" fill="none" stroke="none"></path>
<circle cx="0" cy="0" r="3.727909219818694" fill="#ec5f5f">
  <animateMotion begin="-9.111796159603383s" dur="10s" repeatCount="indefinite">
    <mpath xlink:href="#path24"></mpath>
  </animateMotion>
</circle><path id="path25" d="M 718.557455574189 18.035237485256204
c 0 27.89597027513216 -6.825609748170635 8.012672313069876 -14.83828206124051 8.012672313069876
S 688.880891451708 45.93120776038836 688.880891451708 18.035237485256204
s 6.825609748170635 -8.012672313069876 14.83828206124051 -8.012672313069876
S 718.557455574189 -9.860732789875957 718.557455574189 18.035237485256204
z" fill="none" stroke="none"></path>
<circle cx="0" cy="0" r="4.0019920687722" fill="#f994d9">
  <animateMotion begin="-8.631690353300723s" dur="10s" repeatCount="indefinite">
    <mpath xlink:href="#path25"></mpath>
  </animateMotion>
</circle><path id="path26" d="M 894.6688333406776 486.0102811945968
c 0 21.78631810712079 -5.330694855997639 6.257772222258098 -11.588467078255738 6.257772222258098
S 871.4918991841662 507.7965993017176 871.4918991841662 486.0102811945968
s 5.330694855997639 -6.257772222258098 11.588467078255738 -6.257772222258098
S 894.6688333406776 464.223963087476 894.6688333406776 486.0102811945968
z" fill="none" stroke="none"></path>
<circle cx="0" cy="0" r="4.514523942477997" fill="#f994d9">
  <animateMotion begin="-5.349669109010344s" dur="10s" repeatCount="indefinite">
    <mpath xlink:href="#path26"></mpath>
  </animateMotion>
</circle><path id="path27" d="M 595.4943635328351 524.0890741493363
c 0 35.37917735468707 -8.656607225083008 10.162104133793097 -18.818711358876104 10.162104133793097
S 557.8569408150828 559.4682515040233 557.8569408150828 524.0890741493363
s 8.656607225083008 -10.162104133793097 18.818711358876104 -10.162104133793097
S 595.4943635328351 488.70989679464924 595.4943635328351 524.0890741493363
z" fill="none" stroke="none"></path>
<circle cx="0" cy="0" r="4.577990258489695" fill="#559cd7">
  <animateMotion begin="-1.2084329019828988s" dur="10s" repeatCount="indefinite">
    <mpath xlink:href="#path27"></mpath>
  </animateMotion>
</circle><path id="path28" d="M 782.2160549942788 306.2016436132453
c 0 25.350826833682824 -6.202861884837286 7.281620473504641 -13.484482358341927 7.281620473504641
S 755.247090277595 331.55247044692817 755.247090277595 306.2016436132453
s 6.202861884837286 -7.281620473504641 13.484482358341927 -7.281620473504641
S 782.2160549942788 280.8508167795625 782.2160549942788 306.2016436132453
z" fill="none" stroke="none"></path>
<circle cx="0" cy="0" r="5.627472689688494" fill="#559cd7">
  <animateMotion begin="-0.18005599263605454s" dur="10s" repeatCount="indefinite">
    <mpath xlink:href="#path28"></mpath>
  </animateMotion>
</circle><path id="path29" d="M 560.6766760438492 641.466171674336
c 0 19.11176851768658 -4.676283786242461 5.489550531675933 -10.165834317918394 5.489550531675933
S 540.3450074080123 660.5779401920225 540.3450074080123 641.466171674336
s 4.676283786242461 -5.489550531675933 10.165834317918394 -5.489550531675933
S 560.6766760438492 622.3544031566495 560.6766760438492 641.466171674336
z" fill="none" stroke="none"></path>
<circle cx="0" cy="0" r="3.256040684822533" fill="#ec5f5f">
  <animateMotion begin="-7.513603554964803s" dur="10s" repeatCount="indefinite">
    <mpath xlink:href="#path29"></mpath>
  </animateMotion>
</circle></g>
</svg>