<?xml version="1.0" encoding="utf-8"?>
<svg xmlns="http://www.w3.org/2000/svg" xmlns:xlink="http://www.w3.org/1999/xlink" style="margin: auto; background: rgb(241, 242, 243); display: block; z-index: 1; position: relative; shape-rendering: auto;" width="1536" height="714" preserveAspectRatio="xMidYMid" viewBox="0 0 1536 714">
<g transform="translate(768,357) scale(1,1) translate(-768,-357)"><path id="path0" d="M 1429.359773665391 390.01747740943074
c 0 19.9311148619303 -4.876762147068051 5.724894694384235 -10.601656841452288 5.724894694384235
S 1408.1564599824865 409.94859227136106 1408.1564599824865 390.01747740943074
s 4.876762147068051 -5.724894694384235 10.601656841452288 -5.724894694384235
S 1429.359773665391 370.0863625475004 1429.359773665391 390.01747740943074
z" fill="none" stroke="none"></path>
<circle cx="0" cy="0" r="4.352561473874113" fill="#000000">
  <animateMotion begin="-2.35740465434642s" dur="10s" repeatCount="indefinite">
    <mpath xlink:href="#path0"></mpath>
  </animateMotion>
</circle><path id="path1" d="M 132.7880062225164 212.50718642845305
c 0 33.60236398426076 -8.221855017425506 9.651742846542986 -17.87359786396849 9.651742846542986
S 97.04081049457943 246.10955041271382 97.04081049457943 212.50718642845305
s 8.221855017425506 -9.651742846542986 17.87359786396849 -9.651742846542986
S 132.7880062225164 178.9048224441923 132.7880062225164 212.50718642845305
z" fill="none" stroke="none"></path>
<circle cx="0" cy="0" r="2.925367810665886" fill="#000000">
  <animateMotion begin="-1.4451867225694204s" dur="10s" repeatCount="indefinite">
    <mpath xlink:href="#path1"></mpath>
  </animateMotion>
</circle><path id="path2" d="M 294.9036853274063 324.1399359514863
c 0 29.97432156815262 -7.334142511356491 8.609645556809795 -15.943788068166286 8.609645556809795
S 263.0161091910738 354.1142575196389 263.0161091910738 324.1399359514863
s 7.334142511356491 -8.609645556809795 15.943788068166286 -8.609645556809795
S 294.9036853274063 294.16561438333366 294.9036853274063 324.1399359514863
z" fill="none" stroke="none"></path>
<circle cx="0" cy="0" r="4.836142610229376" fill="#000000">
  <animateMotion begin="-1.300858821359825s" dur="10s" repeatCount="indefinite">
    <mpath xlink:href="#path2"></mpath>
  </animateMotion>
</circle><path id="path3" d="M 549.7716540839187 164.54328585708407
c 0 33.48679197115421 -8.193576758899434 9.61854663001238 -17.812123388911814 9.61854663001238
S 514.1474073060951 198.0300778282383 514.1474073060951 164.54328585708407
s 8.193576758899434 -9.61854663001238 17.812123388911814 -9.61854663001238
S 549.7716540839187 131.05649388592985 549.7716540839187 164.54328585708407
z" fill="none" stroke="none"></path>
<circle cx="0" cy="0" r="4.670748320692261" fill="#000000">
  <animateMotion begin="-6.651373841920494s" dur="10s" repeatCount="indefinite">
    <mpath xlink:href="#path3"></mpath>
  </animateMotion>
</circle><path id="path4" d="M 381.5617491816282 310.37694216255085
c 0 23.797540969886185 -5.822802577738108 6.835463895605607 -12.658266473343716 6.835463895605607
S 356.2452162349408 334.17448313243705 356.2452162349408 310.37694216255085
s 5.822802577738108 -6.835463895605607 12.658266473343716 -6.835463895605607
S 381.5617491816282 286.57940119266465 381.5617491816282 310.37694216255085
z" fill="none" stroke="none"></path>
<circle cx="0" cy="0" r="4.07212690548005" fill="#ecbc13">
  <animateMotion begin="-4.718924960979791s" dur="10s" repeatCount="indefinite">
    <mpath xlink:href="#path4"></mpath>
  </animateMotion>
</circle><path id="path5" d="M 720.8788719538178 279.96740450203504
c 0 29.241985578201945 -7.154953918070688 8.39929372990907 -15.554247647979757 8.39929372990907
S 689.7703766578583 309.209390080237 689.7703766578583 279.96740450203504
s 7.154953918070688 -8.39929372990907 15.554247647979757 -8.39929372990907
S 720.8788719538178 250.7254189238331 720.8788719538178 279.96740450203504
z" fill="none" stroke="none"></path>
<circle cx="0" cy="0" r="3.4652480352808377" fill="#ecbc13">
  <animateMotion begin="-5.725972070505461s" dur="10s" repeatCount="indefinite">
    <mpath xlink:href="#path5"></mpath>
  </animateMotion>
</circle><path id="path6" d="M 1342.3055987718083 596.0340991324142
c 0 22.942749969954107 -5.613651588393025 6.5899388211570304 -12.203590409550056 6.5899388211570304
S 1317.898417952708 618.9768491023683 1317.898417952708 596.0340991324142
s 5.613651588393025 -6.5899388211570304 12.203590409550056 -6.5899388211570304
S 1342.3055987718083 573.0913491624601 1342.3055987718083 596.0340991324142
z" fill="none" stroke="none"></path>
<circle cx="0" cy="0" r="4.314277500120702" fill="#000000">
  <animateMotion begin="-6.137175066009051s" dur="10s" repeatCount="indefinite">
    <mpath xlink:href="#path6"></mpath>
  </animateMotion>
</circle><path id="path7" d="M 181.7070029957452 121.83414420371507
c 0 19.06658378352777 -4.66522794703339 5.476571937821806 -10.141799884855196 5.476571937821806
S 161.4234032260348 140.90072798724285 161.4234032260348 121.83414420371507
s 4.66522794703339 -5.476571937821806 10.141799884855196 -5.476571937821806
S 181.7070029957452 102.7675604201873 181.7070029957452 121.83414420371507
z" fill="none" stroke="none"></path>
<circle cx="0" cy="0" r="5.425253799803159" fill="#000000">
  <animateMotion begin="-4.32688161392607s" dur="10s" repeatCount="indefinite">
    <mpath xlink:href="#path7"></mpath>
  </animateMotion>
</circle><path id="path8" d="M 1337.2305477039963 511.6749536782056
c 0 34.064316930290445 -8.33488605741149 9.784431458700446 -18.119317516111938 9.784431458700446
S 1300.9919126717723 545.7392706084961 1300.9919126717723 511.6749536782056
s 8.33488605741149 -9.784431458700446 18.119317516111938 -9.784431458700446
S 1337.2305477039963 477.6106367479152 1337.2305477039963 511.6749536782056
z" fill="none" stroke="none"></path>
<circle cx="0" cy="0" r="4.038733450682893" fill="#000000">
  <animateMotion begin="-6.7748830149879s" dur="10s" repeatCount="indefinite">
    <mpath xlink:href="#path8"></mpath>
  </animateMotion>
</circle><path id="path9" d="M 645.3085988666745 147.4201103705799
c 0 25.121672762623202 -6.146792271705676 7.215799623306665 -13.362591895012342 7.215799623306665
S 618.5834150766499 172.5417831332031 618.5834150766499 147.4201103705799
s 6.146792271705676 -7.215799623306665 13.362591895012342 -7.215799623306665
S 645.3085988666745 122.29843760795669 645.3085988666745 147.4201103705799
z" fill="none" stroke="none"></path>
<circle cx="0" cy="0" r="3.796217822834613" fill="#000000">
  <animateMotion begin="-9.936680362363465s" dur="10s" repeatCount="indefinite">
    <mpath xlink:href="#path9"></mpath>
  </animateMotion>
</circle><path id="path10" d="M 309.9937087795022 303.0275599680768
c 0 34.527247498115 -8.448156302730267 9.91740087711814 -18.365557179848405 9.91740087711814
S 273.2625944198054 337.5548074661918 273.2625944198054 303.0275599680768
s 8.448156302730267 -9.91740087711814 18.365557179848405 -9.91740087711814
S 309.9937087795022 268.5003124699618 309.9937087795022 303.0275599680768
z" fill="none" stroke="none"></path>
<circle cx="0" cy="0" r="2.8765716241681774" fill="#000000">
  <animateMotion begin="-4.255913723028049s" dur="10s" repeatCount="indefinite">
    <mpath xlink:href="#path10"></mpath>
  </animateMotion>
</circle><path id="path11" d="M 1347.3893243734137 393.2061900609147
c 0 20.174110616645127 -4.9362185551365725 5.794691347334238 -10.730909902470811 5.794691347334238
S 1325.9275045684722 413.38030067755983 1325.9275045684722 393.2061900609147
s 4.9362185551365725 -5.794691347334238 10.730909902470811 -5.794691347334238
S 1347.3893243734137 373.0320794442696 1347.3893243734137 393.2061900609147
z" fill="none" stroke="none"></path>
<circle cx="0" cy="0" r="3.046117125328307" fill="#ecbc13">
  <animateMotion begin="-1.1036435441976566s" dur="10s" repeatCount="indefinite">
    <mpath xlink:href="#path11"></mpath>
  </animateMotion>
</circle><path id="path12" d="M 884.417094739993 332.59238956823503
c 0 32.15682236113132 -7.8681586628300035 9.236534082452614 -17.104692745282616 9.236534082452614
S 850.2077092494278 364.74921192936637 850.2077092494278 332.59238956823503
s 7.8681586628300035 -9.236534082452614 17.104692745282616 -9.236534082452614
S 884.417094739993 300.4355672071037 884.417094739993 332.59238956823503
z" fill="none" stroke="none"></path>
<circle cx="0" cy="0" r="4.816702875229555" fill="#000000">
  <animateMotion begin="-7.51122612391536s" dur="10s" repeatCount="indefinite">
    <mpath xlink:href="#path12"></mpath>
  </animateMotion>
</circle><path id="path13" d="M 1279.7446110624508 651.1533568048798
c 0 27.726649758341665 -6.7841802600197685 7.964037696544946 -14.748217956564716 7.964037696544946
S 1250.2481751493212 678.8800065632214 1250.2481751493212 651.1533568048798
s 6.7841802600197685 -7.964037696544946 14.748217956564716 -7.964037696544946
S 1279.7446110624508 623.4267070465381 1279.7446110624508 651.1533568048798
z" fill="none" stroke="none"></path>
<circle cx="0" cy="0" r="3.7357106559193896" fill="#000000">
  <animateMotion begin="-9.44948170453868s" dur="10s" repeatCount="indefinite">
    <mpath xlink:href="#path13"></mpath>
  </animateMotion>
</circle><path id="path14" d="M 748.0635015947137 604.1908776050635
c 0 36.21899695398149 -8.86209499937845 10.403328912313832 -19.26542391169228 10.403328912313832
S 709.532653771329 640.409874559045 709.532653771329 604.1908776050635
s 8.86209499937845 -10.403328912313832 19.26542391169228 -10.403328912313832
S 748.0635015947137 567.9718806510821 748.0635015947137 604.1908776050635
z" fill="none" stroke="none"></path>
<circle cx="0" cy="0" r="4.891908156890838" fill="#ecbc13">
  <animateMotion begin="-8.015268358868607s" dur="10s" repeatCount="indefinite">
    <mpath xlink:href="#path14"></mpath>
  </animateMotion>
</circle><path id="path15" d="M 702.3890716357786 105.54910803829657
c 0 26.20051569196506 -6.410764477821237 7.525680039181453 -13.936444517002691 7.525680039181453
S 674.5161826017733 131.74962373026162 674.5161826017733 105.54910803829657
s 6.410764477821237 -7.525680039181453 13.936444517002691 -7.525680039181453
S 702.3890716357786 79.34859234633151 702.3890716357786 105.54910803829657
z" fill="none" stroke="none"></path>
<circle cx="0" cy="0" r="4.349221757885117" fill="#000000">
  <animateMotion begin="-9.223010214227676s" dur="10s" repeatCount="indefinite">
    <mpath xlink:href="#path15"></mpath>
  </animateMotion>
</circle><path id="path16" d="M 66.11284496803577 263.1661825331311
c 0 35.22035096791875 -8.61774544959714 10.116483788657513 -18.734229238254652 10.116483788657513
S 28.644386491526472 298.3865335010499 28.644386491526472 263.1661825331311
s 8.61774544959714 -10.116483788657513 18.734229238254652 -10.116483788657513
S 66.11284496803577 227.94583156521236 66.11284496803577 263.1661825331311
z" fill="none" stroke="none"></path>
<circle cx="0" cy="0" r="4.445535872611471" fill="#ecbc13">
  <animateMotion begin="-9.822628058781097s" dur="10s" repeatCount="indefinite">
    <mpath xlink:href="#path16"></mpath>
  </animateMotion>
</circle><path id="path17" d="M 1285.892554198188 575.134454358005
c 0 19.685988042907777 -4.8167843083710515 5.654485927218191 -10.471270235589243 5.654485927218191
S 1264.9500137270097 594.8204424009127 1264.9500137270097 575.134454358005
s 4.8167843083710515 -5.654485927218191 10.471270235589243 -5.654485927218191
S 1285.892554198188 555.4484663150972 1285.892554198188 575.134454358005
z" fill="none" stroke="none"></path>
<circle cx="0" cy="0" r="3.0453276757886307" fill="#000000">
  <animateMotion begin="-4.802744840150255s" dur="10s" repeatCount="indefinite">
    <mpath xlink:href="#path17"></mpath>
  </animateMotion>
</circle><path id="path18" d="M 575.3979104383463 567.105328470248
c 0 27.734157209340935 -6.7860171895195895 7.966194092044737 -14.752211281564326 7.966194092044737
S 545.8934878752177 594.839485679589 545.8934878752177 567.105328470248
s 6.7860171895195895 -7.966194092044737 14.752211281564326 -7.966194092044737
S 575.3979104383463 539.371171260907 575.3979104383463 567.105328470248
z" fill="none" stroke="none"></path>
<circle cx="0" cy="0" r="3.11618456788716" fill="#000000">
  <animateMotion begin="-8.741884573692747s" dur="10s" repeatCount="indefinite">
    <mpath xlink:href="#path18"></mpath>
  </animateMotion>
</circle><path id="path19" d="M 837.7315449972828 553.1747818799568
c 0 28.12337648192035 -6.881251692384766 8.077991117147334 -14.9592428095321 8.077991117147334
S 807.8130593782187 581.2981583618771 807.8130593782187 553.1747818799568
s 6.881251692384766 -8.077991117147334 14.9592428095321 -8.077991117147334
S 837.7315449972828 525.0514053980364 837.7315449972828 553.1747818799568
z" fill="none" stroke="none"></path>
<circle cx="0" cy="0" r="4.757329138740073" fill="#ecbc13">
  <animateMotion begin="-6.160986217992235s" dur="10s" repeatCount="indefinite">
    <mpath xlink:href="#path19"></mpath>
  </animateMotion>
</circle><path id="path20" d="M 952.7087072003844 108.7573827332601
c 0 32.26180653285826 -7.893846279316382 9.266689110501842 -17.16053538981822 9.266689110501842
S 918.3876364207481 141.01918926611836 918.3876364207481 108.7573827332601
s 7.893846279316382 -9.266689110501842 17.16053538981822 -9.266689110501842
S 952.7087072003844 76.49557620040184 952.7087072003844 108.7573827332601
z" fill="none" stroke="none"></path>
<circle cx="0" cy="0" r="4.126398012975383" fill="#000000">
  <animateMotion begin="-6.505822089594662s" dur="10s" repeatCount="indefinite">
    <mpath xlink:href="#path20"></mpath>
  </animateMotion>
</circle><path id="path21" d="M 1337.896413414889 146.1320480268717
c 0 24.45927803985759 -5.984716967199197 7.025537309320797 -13.010254276519994 7.025537309320797
S 1311.8759048618488 170.5913260667293 1311.8759048618488 146.1320480268717
s 5.984716967199197 -7.025537309320797 13.010254276519994 -7.025537309320797
S 1337.896413414889 121.6727699870141 1337.896413414889 146.1320480268717
z" fill="none" stroke="none"></path>
<circle cx="0" cy="0" r="3.03624540144663" fill="#000000">
  <animateMotion begin="-2.9093463947911147s" dur="10s" repeatCount="indefinite">
    <mpath xlink:href="#path21"></mpath>
  </animateMotion>
</circle><path id="path22" d="M 58.378854189351486 438.41342635939066
c 0 22.69908062782266 -5.554030366382139 6.519948690970338 -12.073979057352478 6.519948690970338
S 34.23089607464654 461.1125069872133 34.23089607464654 438.41342635939066
s 5.554030366382139 -6.519948690970338 12.073979057352478 -6.519948690970338
S 58.378854189351486 415.714345731568 58.378854189351486 438.41342635939066
z" fill="none" stroke="none"></path>
<circle cx="0" cy="0" r="3.4334727378847028" fill="#ecbc13">
  <animateMotion begin="-3.021440315299273s" dur="10s" repeatCount="indefinite">
    <mpath xlink:href="#path22"></mpath>
  </animateMotion>
</circle></g>
</svg>